G04 #@! TF.GenerationSoftware,KiCad,Pcbnew,7.0.8-7.0.8~ubuntu22.04.1*
G04 #@! TF.CreationDate,2024-10-17T18:38:32+09:00*
G04 #@! TF.ProjectId,NJW466617LEDDriver,4e4a5734-3636-4363-9137-4c4544447269,rev?*
G04 #@! TF.SameCoordinates,Original*
G04 #@! TF.FileFunction,Legend,Top*
G04 #@! TF.FilePolarity,Positive*
%FSLAX46Y46*%
G04 Gerber Fmt 4.6, Leading zero omitted, Abs format (unit mm)*
G04 Created by KiCad (PCBNEW 7.0.8-7.0.8~ubuntu22.04.1) date 2024-10-17 18:38:32*
%MOMM*%
%LPD*%
G01*
G04 APERTURE LIST*
%ADD10C,0.200000*%
%ADD11C,0.150000*%
%ADD12C,0.120000*%
G04 APERTURE END LIST*
D10*
X111585600Y-46244800D02*
X145585600Y-46244800D01*
X106085600Y-36244800D02*
X151085600Y-36244800D01*
X151085600Y-56244800D01*
X106085600Y-56244800D01*
X106085600Y-36244800D01*
X183585600Y-30244800D02*
X203585600Y-30244800D01*
X203585600Y-140244800D01*
X183585600Y-140244800D01*
X183585600Y-30244800D01*
D11*
X116752266Y-70289619D02*
X116752266Y-71003904D01*
X116752266Y-71003904D02*
X116704647Y-71146761D01*
X116704647Y-71146761D02*
X116609409Y-71242000D01*
X116609409Y-71242000D02*
X116466552Y-71289619D01*
X116466552Y-71289619D02*
X116371314Y-71289619D01*
X117133219Y-70289619D02*
X117752266Y-70289619D01*
X117752266Y-70289619D02*
X117418933Y-70670571D01*
X117418933Y-70670571D02*
X117561790Y-70670571D01*
X117561790Y-70670571D02*
X117657028Y-70718190D01*
X117657028Y-70718190D02*
X117704647Y-70765809D01*
X117704647Y-70765809D02*
X117752266Y-70861047D01*
X117752266Y-70861047D02*
X117752266Y-71099142D01*
X117752266Y-71099142D02*
X117704647Y-71194380D01*
X117704647Y-71194380D02*
X117657028Y-71242000D01*
X117657028Y-71242000D02*
X117561790Y-71289619D01*
X117561790Y-71289619D02*
X117276076Y-71289619D01*
X117276076Y-71289619D02*
X117180838Y-71242000D01*
X117180838Y-71242000D02*
X117133219Y-71194380D01*
X159700419Y-132086704D02*
X160509942Y-132086704D01*
X160509942Y-132086704D02*
X160605180Y-132039085D01*
X160605180Y-132039085D02*
X160652800Y-131991466D01*
X160652800Y-131991466D02*
X160700419Y-131896228D01*
X160700419Y-131896228D02*
X160700419Y-131705752D01*
X160700419Y-131705752D02*
X160652800Y-131610514D01*
X160652800Y-131610514D02*
X160605180Y-131562895D01*
X160605180Y-131562895D02*
X160509942Y-131515276D01*
X160509942Y-131515276D02*
X159700419Y-131515276D01*
X159700419Y-130610514D02*
X159700419Y-130800990D01*
X159700419Y-130800990D02*
X159748038Y-130896228D01*
X159748038Y-130896228D02*
X159795657Y-130943847D01*
X159795657Y-130943847D02*
X159938514Y-131039085D01*
X159938514Y-131039085D02*
X160128990Y-131086704D01*
X160128990Y-131086704D02*
X160509942Y-131086704D01*
X160509942Y-131086704D02*
X160605180Y-131039085D01*
X160605180Y-131039085D02*
X160652800Y-130991466D01*
X160652800Y-130991466D02*
X160700419Y-130896228D01*
X160700419Y-130896228D02*
X160700419Y-130705752D01*
X160700419Y-130705752D02*
X160652800Y-130610514D01*
X160652800Y-130610514D02*
X160605180Y-130562895D01*
X160605180Y-130562895D02*
X160509942Y-130515276D01*
X160509942Y-130515276D02*
X160271847Y-130515276D01*
X160271847Y-130515276D02*
X160176609Y-130562895D01*
X160176609Y-130562895D02*
X160128990Y-130610514D01*
X160128990Y-130610514D02*
X160081371Y-130705752D01*
X160081371Y-130705752D02*
X160081371Y-130896228D01*
X160081371Y-130896228D02*
X160128990Y-130991466D01*
X160128990Y-130991466D02*
X160176609Y-131039085D01*
X160176609Y-131039085D02*
X160271847Y-131086704D01*
X159700419Y-112086704D02*
X160509942Y-112086704D01*
X160509942Y-112086704D02*
X160605180Y-112039085D01*
X160605180Y-112039085D02*
X160652800Y-111991466D01*
X160652800Y-111991466D02*
X160700419Y-111896228D01*
X160700419Y-111896228D02*
X160700419Y-111705752D01*
X160700419Y-111705752D02*
X160652800Y-111610514D01*
X160652800Y-111610514D02*
X160605180Y-111562895D01*
X160605180Y-111562895D02*
X160509942Y-111515276D01*
X160509942Y-111515276D02*
X159700419Y-111515276D01*
X159700419Y-110562895D02*
X159700419Y-111039085D01*
X159700419Y-111039085D02*
X160176609Y-111086704D01*
X160176609Y-111086704D02*
X160128990Y-111039085D01*
X160128990Y-111039085D02*
X160081371Y-110943847D01*
X160081371Y-110943847D02*
X160081371Y-110705752D01*
X160081371Y-110705752D02*
X160128990Y-110610514D01*
X160128990Y-110610514D02*
X160176609Y-110562895D01*
X160176609Y-110562895D02*
X160271847Y-110515276D01*
X160271847Y-110515276D02*
X160509942Y-110515276D01*
X160509942Y-110515276D02*
X160605180Y-110562895D01*
X160605180Y-110562895D02*
X160652800Y-110610514D01*
X160652800Y-110610514D02*
X160700419Y-110705752D01*
X160700419Y-110705752D02*
X160700419Y-110943847D01*
X160700419Y-110943847D02*
X160652800Y-111039085D01*
X160652800Y-111039085D02*
X160605180Y-111086704D01*
X159700419Y-94626704D02*
X160509942Y-94626704D01*
X160509942Y-94626704D02*
X160605180Y-94579085D01*
X160605180Y-94579085D02*
X160652800Y-94531466D01*
X160652800Y-94531466D02*
X160700419Y-94436228D01*
X160700419Y-94436228D02*
X160700419Y-94245752D01*
X160700419Y-94245752D02*
X160652800Y-94150514D01*
X160652800Y-94150514D02*
X160605180Y-94102895D01*
X160605180Y-94102895D02*
X160509942Y-94055276D01*
X160509942Y-94055276D02*
X159700419Y-94055276D01*
X160033752Y-93150514D02*
X160700419Y-93150514D01*
X159652800Y-93388609D02*
X160367085Y-93626704D01*
X160367085Y-93626704D02*
X160367085Y-93007657D01*
X159700419Y-77086704D02*
X160509942Y-77086704D01*
X160509942Y-77086704D02*
X160605180Y-77039085D01*
X160605180Y-77039085D02*
X160652800Y-76991466D01*
X160652800Y-76991466D02*
X160700419Y-76896228D01*
X160700419Y-76896228D02*
X160700419Y-76705752D01*
X160700419Y-76705752D02*
X160652800Y-76610514D01*
X160652800Y-76610514D02*
X160605180Y-76562895D01*
X160605180Y-76562895D02*
X160509942Y-76515276D01*
X160509942Y-76515276D02*
X159700419Y-76515276D01*
X159700419Y-76134323D02*
X159700419Y-75515276D01*
X159700419Y-75515276D02*
X160081371Y-75848609D01*
X160081371Y-75848609D02*
X160081371Y-75705752D01*
X160081371Y-75705752D02*
X160128990Y-75610514D01*
X160128990Y-75610514D02*
X160176609Y-75562895D01*
X160176609Y-75562895D02*
X160271847Y-75515276D01*
X160271847Y-75515276D02*
X160509942Y-75515276D01*
X160509942Y-75515276D02*
X160605180Y-75562895D01*
X160605180Y-75562895D02*
X160652800Y-75610514D01*
X160652800Y-75610514D02*
X160700419Y-75705752D01*
X160700419Y-75705752D02*
X160700419Y-75991466D01*
X160700419Y-75991466D02*
X160652800Y-76086704D01*
X160652800Y-76086704D02*
X160605180Y-76134323D01*
X159700419Y-59546704D02*
X160509942Y-59546704D01*
X160509942Y-59546704D02*
X160605180Y-59499085D01*
X160605180Y-59499085D02*
X160652800Y-59451466D01*
X160652800Y-59451466D02*
X160700419Y-59356228D01*
X160700419Y-59356228D02*
X160700419Y-59165752D01*
X160700419Y-59165752D02*
X160652800Y-59070514D01*
X160652800Y-59070514D02*
X160605180Y-59022895D01*
X160605180Y-59022895D02*
X160509942Y-58975276D01*
X160509942Y-58975276D02*
X159700419Y-58975276D01*
X159795657Y-58546704D02*
X159748038Y-58499085D01*
X159748038Y-58499085D02*
X159700419Y-58403847D01*
X159700419Y-58403847D02*
X159700419Y-58165752D01*
X159700419Y-58165752D02*
X159748038Y-58070514D01*
X159748038Y-58070514D02*
X159795657Y-58022895D01*
X159795657Y-58022895D02*
X159890895Y-57975276D01*
X159890895Y-57975276D02*
X159986133Y-57975276D01*
X159986133Y-57975276D02*
X160128990Y-58022895D01*
X160128990Y-58022895D02*
X160700419Y-58594323D01*
X160700419Y-58594323D02*
X160700419Y-57975276D01*
X159700419Y-41966704D02*
X160509942Y-41966704D01*
X160509942Y-41966704D02*
X160605180Y-41919085D01*
X160605180Y-41919085D02*
X160652800Y-41871466D01*
X160652800Y-41871466D02*
X160700419Y-41776228D01*
X160700419Y-41776228D02*
X160700419Y-41585752D01*
X160700419Y-41585752D02*
X160652800Y-41490514D01*
X160652800Y-41490514D02*
X160605180Y-41442895D01*
X160605180Y-41442895D02*
X160509942Y-41395276D01*
X160509942Y-41395276D02*
X159700419Y-41395276D01*
X160700419Y-40395276D02*
X160700419Y-40966704D01*
X160700419Y-40680990D02*
X159700419Y-40680990D01*
X159700419Y-40680990D02*
X159843276Y-40776228D01*
X159843276Y-40776228D02*
X159938514Y-40871466D01*
X159938514Y-40871466D02*
X159986133Y-40966704D01*
X140632742Y-129329619D02*
X140299409Y-128853428D01*
X140061314Y-129329619D02*
X140061314Y-128329619D01*
X140061314Y-128329619D02*
X140442266Y-128329619D01*
X140442266Y-128329619D02*
X140537504Y-128377238D01*
X140537504Y-128377238D02*
X140585123Y-128424857D01*
X140585123Y-128424857D02*
X140632742Y-128520095D01*
X140632742Y-128520095D02*
X140632742Y-128662952D01*
X140632742Y-128662952D02*
X140585123Y-128758190D01*
X140585123Y-128758190D02*
X140537504Y-128805809D01*
X140537504Y-128805809D02*
X140442266Y-128853428D01*
X140442266Y-128853428D02*
X140061314Y-128853428D01*
X141013695Y-128424857D02*
X141061314Y-128377238D01*
X141061314Y-128377238D02*
X141156552Y-128329619D01*
X141156552Y-128329619D02*
X141394647Y-128329619D01*
X141394647Y-128329619D02*
X141489885Y-128377238D01*
X141489885Y-128377238D02*
X141537504Y-128424857D01*
X141537504Y-128424857D02*
X141585123Y-128520095D01*
X141585123Y-128520095D02*
X141585123Y-128615333D01*
X141585123Y-128615333D02*
X141537504Y-128758190D01*
X141537504Y-128758190D02*
X140966076Y-129329619D01*
X140966076Y-129329619D02*
X141585123Y-129329619D01*
X142442266Y-128662952D02*
X142442266Y-129329619D01*
X142204171Y-128282000D02*
X141966076Y-128996285D01*
X141966076Y-128996285D02*
X142585123Y-128996285D01*
X140632742Y-125279619D02*
X140299409Y-124803428D01*
X140061314Y-125279619D02*
X140061314Y-124279619D01*
X140061314Y-124279619D02*
X140442266Y-124279619D01*
X140442266Y-124279619D02*
X140537504Y-124327238D01*
X140537504Y-124327238D02*
X140585123Y-124374857D01*
X140585123Y-124374857D02*
X140632742Y-124470095D01*
X140632742Y-124470095D02*
X140632742Y-124612952D01*
X140632742Y-124612952D02*
X140585123Y-124708190D01*
X140585123Y-124708190D02*
X140537504Y-124755809D01*
X140537504Y-124755809D02*
X140442266Y-124803428D01*
X140442266Y-124803428D02*
X140061314Y-124803428D01*
X141013695Y-124374857D02*
X141061314Y-124327238D01*
X141061314Y-124327238D02*
X141156552Y-124279619D01*
X141156552Y-124279619D02*
X141394647Y-124279619D01*
X141394647Y-124279619D02*
X141489885Y-124327238D01*
X141489885Y-124327238D02*
X141537504Y-124374857D01*
X141537504Y-124374857D02*
X141585123Y-124470095D01*
X141585123Y-124470095D02*
X141585123Y-124565333D01*
X141585123Y-124565333D02*
X141537504Y-124708190D01*
X141537504Y-124708190D02*
X140966076Y-125279619D01*
X140966076Y-125279619D02*
X141585123Y-125279619D01*
X141918457Y-124279619D02*
X142537504Y-124279619D01*
X142537504Y-124279619D02*
X142204171Y-124660571D01*
X142204171Y-124660571D02*
X142347028Y-124660571D01*
X142347028Y-124660571D02*
X142442266Y-124708190D01*
X142442266Y-124708190D02*
X142489885Y-124755809D01*
X142489885Y-124755809D02*
X142537504Y-124851047D01*
X142537504Y-124851047D02*
X142537504Y-125089142D01*
X142537504Y-125089142D02*
X142489885Y-125184380D01*
X142489885Y-125184380D02*
X142442266Y-125232000D01*
X142442266Y-125232000D02*
X142347028Y-125279619D01*
X142347028Y-125279619D02*
X142061314Y-125279619D01*
X142061314Y-125279619D02*
X141966076Y-125232000D01*
X141966076Y-125232000D02*
X141918457Y-125184380D01*
X130632742Y-129179619D02*
X130299409Y-128703428D01*
X130061314Y-129179619D02*
X130061314Y-128179619D01*
X130061314Y-128179619D02*
X130442266Y-128179619D01*
X130442266Y-128179619D02*
X130537504Y-128227238D01*
X130537504Y-128227238D02*
X130585123Y-128274857D01*
X130585123Y-128274857D02*
X130632742Y-128370095D01*
X130632742Y-128370095D02*
X130632742Y-128512952D01*
X130632742Y-128512952D02*
X130585123Y-128608190D01*
X130585123Y-128608190D02*
X130537504Y-128655809D01*
X130537504Y-128655809D02*
X130442266Y-128703428D01*
X130442266Y-128703428D02*
X130061314Y-128703428D01*
X131013695Y-128274857D02*
X131061314Y-128227238D01*
X131061314Y-128227238D02*
X131156552Y-128179619D01*
X131156552Y-128179619D02*
X131394647Y-128179619D01*
X131394647Y-128179619D02*
X131489885Y-128227238D01*
X131489885Y-128227238D02*
X131537504Y-128274857D01*
X131537504Y-128274857D02*
X131585123Y-128370095D01*
X131585123Y-128370095D02*
X131585123Y-128465333D01*
X131585123Y-128465333D02*
X131537504Y-128608190D01*
X131537504Y-128608190D02*
X130966076Y-129179619D01*
X130966076Y-129179619D02*
X131585123Y-129179619D01*
X131966076Y-128274857D02*
X132013695Y-128227238D01*
X132013695Y-128227238D02*
X132108933Y-128179619D01*
X132108933Y-128179619D02*
X132347028Y-128179619D01*
X132347028Y-128179619D02*
X132442266Y-128227238D01*
X132442266Y-128227238D02*
X132489885Y-128274857D01*
X132489885Y-128274857D02*
X132537504Y-128370095D01*
X132537504Y-128370095D02*
X132537504Y-128465333D01*
X132537504Y-128465333D02*
X132489885Y-128608190D01*
X132489885Y-128608190D02*
X131918457Y-129179619D01*
X131918457Y-129179619D02*
X132537504Y-129179619D01*
X130632742Y-125129619D02*
X130299409Y-124653428D01*
X130061314Y-125129619D02*
X130061314Y-124129619D01*
X130061314Y-124129619D02*
X130442266Y-124129619D01*
X130442266Y-124129619D02*
X130537504Y-124177238D01*
X130537504Y-124177238D02*
X130585123Y-124224857D01*
X130585123Y-124224857D02*
X130632742Y-124320095D01*
X130632742Y-124320095D02*
X130632742Y-124462952D01*
X130632742Y-124462952D02*
X130585123Y-124558190D01*
X130585123Y-124558190D02*
X130537504Y-124605809D01*
X130537504Y-124605809D02*
X130442266Y-124653428D01*
X130442266Y-124653428D02*
X130061314Y-124653428D01*
X131013695Y-124224857D02*
X131061314Y-124177238D01*
X131061314Y-124177238D02*
X131156552Y-124129619D01*
X131156552Y-124129619D02*
X131394647Y-124129619D01*
X131394647Y-124129619D02*
X131489885Y-124177238D01*
X131489885Y-124177238D02*
X131537504Y-124224857D01*
X131537504Y-124224857D02*
X131585123Y-124320095D01*
X131585123Y-124320095D02*
X131585123Y-124415333D01*
X131585123Y-124415333D02*
X131537504Y-124558190D01*
X131537504Y-124558190D02*
X130966076Y-125129619D01*
X130966076Y-125129619D02*
X131585123Y-125129619D01*
X132537504Y-125129619D02*
X131966076Y-125129619D01*
X132251790Y-125129619D02*
X132251790Y-124129619D01*
X132251790Y-124129619D02*
X132156552Y-124272476D01*
X132156552Y-124272476D02*
X132061314Y-124367714D01*
X132061314Y-124367714D02*
X131966076Y-124415333D01*
X140442742Y-119329619D02*
X140109409Y-118853428D01*
X139871314Y-119329619D02*
X139871314Y-118329619D01*
X139871314Y-118329619D02*
X140252266Y-118329619D01*
X140252266Y-118329619D02*
X140347504Y-118377238D01*
X140347504Y-118377238D02*
X140395123Y-118424857D01*
X140395123Y-118424857D02*
X140442742Y-118520095D01*
X140442742Y-118520095D02*
X140442742Y-118662952D01*
X140442742Y-118662952D02*
X140395123Y-118758190D01*
X140395123Y-118758190D02*
X140347504Y-118805809D01*
X140347504Y-118805809D02*
X140252266Y-118853428D01*
X140252266Y-118853428D02*
X139871314Y-118853428D01*
X140823695Y-118424857D02*
X140871314Y-118377238D01*
X140871314Y-118377238D02*
X140966552Y-118329619D01*
X140966552Y-118329619D02*
X141204647Y-118329619D01*
X141204647Y-118329619D02*
X141299885Y-118377238D01*
X141299885Y-118377238D02*
X141347504Y-118424857D01*
X141347504Y-118424857D02*
X141395123Y-118520095D01*
X141395123Y-118520095D02*
X141395123Y-118615333D01*
X141395123Y-118615333D02*
X141347504Y-118758190D01*
X141347504Y-118758190D02*
X140776076Y-119329619D01*
X140776076Y-119329619D02*
X141395123Y-119329619D01*
X142014171Y-118329619D02*
X142109409Y-118329619D01*
X142109409Y-118329619D02*
X142204647Y-118377238D01*
X142204647Y-118377238D02*
X142252266Y-118424857D01*
X142252266Y-118424857D02*
X142299885Y-118520095D01*
X142299885Y-118520095D02*
X142347504Y-118710571D01*
X142347504Y-118710571D02*
X142347504Y-118948666D01*
X142347504Y-118948666D02*
X142299885Y-119139142D01*
X142299885Y-119139142D02*
X142252266Y-119234380D01*
X142252266Y-119234380D02*
X142204647Y-119282000D01*
X142204647Y-119282000D02*
X142109409Y-119329619D01*
X142109409Y-119329619D02*
X142014171Y-119329619D01*
X142014171Y-119329619D02*
X141918933Y-119282000D01*
X141918933Y-119282000D02*
X141871314Y-119234380D01*
X141871314Y-119234380D02*
X141823695Y-119139142D01*
X141823695Y-119139142D02*
X141776076Y-118948666D01*
X141776076Y-118948666D02*
X141776076Y-118710571D01*
X141776076Y-118710571D02*
X141823695Y-118520095D01*
X141823695Y-118520095D02*
X141871314Y-118424857D01*
X141871314Y-118424857D02*
X141918933Y-118377238D01*
X141918933Y-118377238D02*
X142014171Y-118329619D01*
X140442742Y-115279619D02*
X140109409Y-114803428D01*
X139871314Y-115279619D02*
X139871314Y-114279619D01*
X139871314Y-114279619D02*
X140252266Y-114279619D01*
X140252266Y-114279619D02*
X140347504Y-114327238D01*
X140347504Y-114327238D02*
X140395123Y-114374857D01*
X140395123Y-114374857D02*
X140442742Y-114470095D01*
X140442742Y-114470095D02*
X140442742Y-114612952D01*
X140442742Y-114612952D02*
X140395123Y-114708190D01*
X140395123Y-114708190D02*
X140347504Y-114755809D01*
X140347504Y-114755809D02*
X140252266Y-114803428D01*
X140252266Y-114803428D02*
X139871314Y-114803428D01*
X141395123Y-115279619D02*
X140823695Y-115279619D01*
X141109409Y-115279619D02*
X141109409Y-114279619D01*
X141109409Y-114279619D02*
X141014171Y-114422476D01*
X141014171Y-114422476D02*
X140918933Y-114517714D01*
X140918933Y-114517714D02*
X140823695Y-114565333D01*
X141871314Y-115279619D02*
X142061790Y-115279619D01*
X142061790Y-115279619D02*
X142157028Y-115232000D01*
X142157028Y-115232000D02*
X142204647Y-115184380D01*
X142204647Y-115184380D02*
X142299885Y-115041523D01*
X142299885Y-115041523D02*
X142347504Y-114851047D01*
X142347504Y-114851047D02*
X142347504Y-114470095D01*
X142347504Y-114470095D02*
X142299885Y-114374857D01*
X142299885Y-114374857D02*
X142252266Y-114327238D01*
X142252266Y-114327238D02*
X142157028Y-114279619D01*
X142157028Y-114279619D02*
X141966552Y-114279619D01*
X141966552Y-114279619D02*
X141871314Y-114327238D01*
X141871314Y-114327238D02*
X141823695Y-114374857D01*
X141823695Y-114374857D02*
X141776076Y-114470095D01*
X141776076Y-114470095D02*
X141776076Y-114708190D01*
X141776076Y-114708190D02*
X141823695Y-114803428D01*
X141823695Y-114803428D02*
X141871314Y-114851047D01*
X141871314Y-114851047D02*
X141966552Y-114898666D01*
X141966552Y-114898666D02*
X142157028Y-114898666D01*
X142157028Y-114898666D02*
X142252266Y-114851047D01*
X142252266Y-114851047D02*
X142299885Y-114803428D01*
X142299885Y-114803428D02*
X142347504Y-114708190D01*
X130442742Y-119329619D02*
X130109409Y-118853428D01*
X129871314Y-119329619D02*
X129871314Y-118329619D01*
X129871314Y-118329619D02*
X130252266Y-118329619D01*
X130252266Y-118329619D02*
X130347504Y-118377238D01*
X130347504Y-118377238D02*
X130395123Y-118424857D01*
X130395123Y-118424857D02*
X130442742Y-118520095D01*
X130442742Y-118520095D02*
X130442742Y-118662952D01*
X130442742Y-118662952D02*
X130395123Y-118758190D01*
X130395123Y-118758190D02*
X130347504Y-118805809D01*
X130347504Y-118805809D02*
X130252266Y-118853428D01*
X130252266Y-118853428D02*
X129871314Y-118853428D01*
X131395123Y-119329619D02*
X130823695Y-119329619D01*
X131109409Y-119329619D02*
X131109409Y-118329619D01*
X131109409Y-118329619D02*
X131014171Y-118472476D01*
X131014171Y-118472476D02*
X130918933Y-118567714D01*
X130918933Y-118567714D02*
X130823695Y-118615333D01*
X131966552Y-118758190D02*
X131871314Y-118710571D01*
X131871314Y-118710571D02*
X131823695Y-118662952D01*
X131823695Y-118662952D02*
X131776076Y-118567714D01*
X131776076Y-118567714D02*
X131776076Y-118520095D01*
X131776076Y-118520095D02*
X131823695Y-118424857D01*
X131823695Y-118424857D02*
X131871314Y-118377238D01*
X131871314Y-118377238D02*
X131966552Y-118329619D01*
X131966552Y-118329619D02*
X132157028Y-118329619D01*
X132157028Y-118329619D02*
X132252266Y-118377238D01*
X132252266Y-118377238D02*
X132299885Y-118424857D01*
X132299885Y-118424857D02*
X132347504Y-118520095D01*
X132347504Y-118520095D02*
X132347504Y-118567714D01*
X132347504Y-118567714D02*
X132299885Y-118662952D01*
X132299885Y-118662952D02*
X132252266Y-118710571D01*
X132252266Y-118710571D02*
X132157028Y-118758190D01*
X132157028Y-118758190D02*
X131966552Y-118758190D01*
X131966552Y-118758190D02*
X131871314Y-118805809D01*
X131871314Y-118805809D02*
X131823695Y-118853428D01*
X131823695Y-118853428D02*
X131776076Y-118948666D01*
X131776076Y-118948666D02*
X131776076Y-119139142D01*
X131776076Y-119139142D02*
X131823695Y-119234380D01*
X131823695Y-119234380D02*
X131871314Y-119282000D01*
X131871314Y-119282000D02*
X131966552Y-119329619D01*
X131966552Y-119329619D02*
X132157028Y-119329619D01*
X132157028Y-119329619D02*
X132252266Y-119282000D01*
X132252266Y-119282000D02*
X132299885Y-119234380D01*
X132299885Y-119234380D02*
X132347504Y-119139142D01*
X132347504Y-119139142D02*
X132347504Y-118948666D01*
X132347504Y-118948666D02*
X132299885Y-118853428D01*
X132299885Y-118853428D02*
X132252266Y-118805809D01*
X132252266Y-118805809D02*
X132157028Y-118758190D01*
X130442742Y-115279619D02*
X130109409Y-114803428D01*
X129871314Y-115279619D02*
X129871314Y-114279619D01*
X129871314Y-114279619D02*
X130252266Y-114279619D01*
X130252266Y-114279619D02*
X130347504Y-114327238D01*
X130347504Y-114327238D02*
X130395123Y-114374857D01*
X130395123Y-114374857D02*
X130442742Y-114470095D01*
X130442742Y-114470095D02*
X130442742Y-114612952D01*
X130442742Y-114612952D02*
X130395123Y-114708190D01*
X130395123Y-114708190D02*
X130347504Y-114755809D01*
X130347504Y-114755809D02*
X130252266Y-114803428D01*
X130252266Y-114803428D02*
X129871314Y-114803428D01*
X131395123Y-115279619D02*
X130823695Y-115279619D01*
X131109409Y-115279619D02*
X131109409Y-114279619D01*
X131109409Y-114279619D02*
X131014171Y-114422476D01*
X131014171Y-114422476D02*
X130918933Y-114517714D01*
X130918933Y-114517714D02*
X130823695Y-114565333D01*
X131728457Y-114279619D02*
X132395123Y-114279619D01*
X132395123Y-114279619D02*
X131966552Y-115279619D01*
X140632742Y-109329619D02*
X140299409Y-108853428D01*
X140061314Y-109329619D02*
X140061314Y-108329619D01*
X140061314Y-108329619D02*
X140442266Y-108329619D01*
X140442266Y-108329619D02*
X140537504Y-108377238D01*
X140537504Y-108377238D02*
X140585123Y-108424857D01*
X140585123Y-108424857D02*
X140632742Y-108520095D01*
X140632742Y-108520095D02*
X140632742Y-108662952D01*
X140632742Y-108662952D02*
X140585123Y-108758190D01*
X140585123Y-108758190D02*
X140537504Y-108805809D01*
X140537504Y-108805809D02*
X140442266Y-108853428D01*
X140442266Y-108853428D02*
X140061314Y-108853428D01*
X141585123Y-109329619D02*
X141013695Y-109329619D01*
X141299409Y-109329619D02*
X141299409Y-108329619D01*
X141299409Y-108329619D02*
X141204171Y-108472476D01*
X141204171Y-108472476D02*
X141108933Y-108567714D01*
X141108933Y-108567714D02*
X141013695Y-108615333D01*
X142442266Y-108329619D02*
X142251790Y-108329619D01*
X142251790Y-108329619D02*
X142156552Y-108377238D01*
X142156552Y-108377238D02*
X142108933Y-108424857D01*
X142108933Y-108424857D02*
X142013695Y-108567714D01*
X142013695Y-108567714D02*
X141966076Y-108758190D01*
X141966076Y-108758190D02*
X141966076Y-109139142D01*
X141966076Y-109139142D02*
X142013695Y-109234380D01*
X142013695Y-109234380D02*
X142061314Y-109282000D01*
X142061314Y-109282000D02*
X142156552Y-109329619D01*
X142156552Y-109329619D02*
X142347028Y-109329619D01*
X142347028Y-109329619D02*
X142442266Y-109282000D01*
X142442266Y-109282000D02*
X142489885Y-109234380D01*
X142489885Y-109234380D02*
X142537504Y-109139142D01*
X142537504Y-109139142D02*
X142537504Y-108901047D01*
X142537504Y-108901047D02*
X142489885Y-108805809D01*
X142489885Y-108805809D02*
X142442266Y-108758190D01*
X142442266Y-108758190D02*
X142347028Y-108710571D01*
X142347028Y-108710571D02*
X142156552Y-108710571D01*
X142156552Y-108710571D02*
X142061314Y-108758190D01*
X142061314Y-108758190D02*
X142013695Y-108805809D01*
X142013695Y-108805809D02*
X141966076Y-108901047D01*
X140632742Y-105279619D02*
X140299409Y-104803428D01*
X140061314Y-105279619D02*
X140061314Y-104279619D01*
X140061314Y-104279619D02*
X140442266Y-104279619D01*
X140442266Y-104279619D02*
X140537504Y-104327238D01*
X140537504Y-104327238D02*
X140585123Y-104374857D01*
X140585123Y-104374857D02*
X140632742Y-104470095D01*
X140632742Y-104470095D02*
X140632742Y-104612952D01*
X140632742Y-104612952D02*
X140585123Y-104708190D01*
X140585123Y-104708190D02*
X140537504Y-104755809D01*
X140537504Y-104755809D02*
X140442266Y-104803428D01*
X140442266Y-104803428D02*
X140061314Y-104803428D01*
X141585123Y-105279619D02*
X141013695Y-105279619D01*
X141299409Y-105279619D02*
X141299409Y-104279619D01*
X141299409Y-104279619D02*
X141204171Y-104422476D01*
X141204171Y-104422476D02*
X141108933Y-104517714D01*
X141108933Y-104517714D02*
X141013695Y-104565333D01*
X142489885Y-104279619D02*
X142013695Y-104279619D01*
X142013695Y-104279619D02*
X141966076Y-104755809D01*
X141966076Y-104755809D02*
X142013695Y-104708190D01*
X142013695Y-104708190D02*
X142108933Y-104660571D01*
X142108933Y-104660571D02*
X142347028Y-104660571D01*
X142347028Y-104660571D02*
X142442266Y-104708190D01*
X142442266Y-104708190D02*
X142489885Y-104755809D01*
X142489885Y-104755809D02*
X142537504Y-104851047D01*
X142537504Y-104851047D02*
X142537504Y-105089142D01*
X142537504Y-105089142D02*
X142489885Y-105184380D01*
X142489885Y-105184380D02*
X142442266Y-105232000D01*
X142442266Y-105232000D02*
X142347028Y-105279619D01*
X142347028Y-105279619D02*
X142108933Y-105279619D01*
X142108933Y-105279619D02*
X142013695Y-105232000D01*
X142013695Y-105232000D02*
X141966076Y-105184380D01*
X130632742Y-109179619D02*
X130299409Y-108703428D01*
X130061314Y-109179619D02*
X130061314Y-108179619D01*
X130061314Y-108179619D02*
X130442266Y-108179619D01*
X130442266Y-108179619D02*
X130537504Y-108227238D01*
X130537504Y-108227238D02*
X130585123Y-108274857D01*
X130585123Y-108274857D02*
X130632742Y-108370095D01*
X130632742Y-108370095D02*
X130632742Y-108512952D01*
X130632742Y-108512952D02*
X130585123Y-108608190D01*
X130585123Y-108608190D02*
X130537504Y-108655809D01*
X130537504Y-108655809D02*
X130442266Y-108703428D01*
X130442266Y-108703428D02*
X130061314Y-108703428D01*
X131585123Y-109179619D02*
X131013695Y-109179619D01*
X131299409Y-109179619D02*
X131299409Y-108179619D01*
X131299409Y-108179619D02*
X131204171Y-108322476D01*
X131204171Y-108322476D02*
X131108933Y-108417714D01*
X131108933Y-108417714D02*
X131013695Y-108465333D01*
X132442266Y-108512952D02*
X132442266Y-109179619D01*
X132204171Y-108132000D02*
X131966076Y-108846285D01*
X131966076Y-108846285D02*
X132585123Y-108846285D01*
X130442742Y-105149619D02*
X130109409Y-104673428D01*
X129871314Y-105149619D02*
X129871314Y-104149619D01*
X129871314Y-104149619D02*
X130252266Y-104149619D01*
X130252266Y-104149619D02*
X130347504Y-104197238D01*
X130347504Y-104197238D02*
X130395123Y-104244857D01*
X130395123Y-104244857D02*
X130442742Y-104340095D01*
X130442742Y-104340095D02*
X130442742Y-104482952D01*
X130442742Y-104482952D02*
X130395123Y-104578190D01*
X130395123Y-104578190D02*
X130347504Y-104625809D01*
X130347504Y-104625809D02*
X130252266Y-104673428D01*
X130252266Y-104673428D02*
X129871314Y-104673428D01*
X131395123Y-105149619D02*
X130823695Y-105149619D01*
X131109409Y-105149619D02*
X131109409Y-104149619D01*
X131109409Y-104149619D02*
X131014171Y-104292476D01*
X131014171Y-104292476D02*
X130918933Y-104387714D01*
X130918933Y-104387714D02*
X130823695Y-104435333D01*
X131728457Y-104149619D02*
X132347504Y-104149619D01*
X132347504Y-104149619D02*
X132014171Y-104530571D01*
X132014171Y-104530571D02*
X132157028Y-104530571D01*
X132157028Y-104530571D02*
X132252266Y-104578190D01*
X132252266Y-104578190D02*
X132299885Y-104625809D01*
X132299885Y-104625809D02*
X132347504Y-104721047D01*
X132347504Y-104721047D02*
X132347504Y-104959142D01*
X132347504Y-104959142D02*
X132299885Y-105054380D01*
X132299885Y-105054380D02*
X132252266Y-105102000D01*
X132252266Y-105102000D02*
X132157028Y-105149619D01*
X132157028Y-105149619D02*
X131871314Y-105149619D01*
X131871314Y-105149619D02*
X131776076Y-105102000D01*
X131776076Y-105102000D02*
X131728457Y-105054380D01*
X140632742Y-99329619D02*
X140299409Y-98853428D01*
X140061314Y-99329619D02*
X140061314Y-98329619D01*
X140061314Y-98329619D02*
X140442266Y-98329619D01*
X140442266Y-98329619D02*
X140537504Y-98377238D01*
X140537504Y-98377238D02*
X140585123Y-98424857D01*
X140585123Y-98424857D02*
X140632742Y-98520095D01*
X140632742Y-98520095D02*
X140632742Y-98662952D01*
X140632742Y-98662952D02*
X140585123Y-98758190D01*
X140585123Y-98758190D02*
X140537504Y-98805809D01*
X140537504Y-98805809D02*
X140442266Y-98853428D01*
X140442266Y-98853428D02*
X140061314Y-98853428D01*
X141585123Y-99329619D02*
X141013695Y-99329619D01*
X141299409Y-99329619D02*
X141299409Y-98329619D01*
X141299409Y-98329619D02*
X141204171Y-98472476D01*
X141204171Y-98472476D02*
X141108933Y-98567714D01*
X141108933Y-98567714D02*
X141013695Y-98615333D01*
X141966076Y-98424857D02*
X142013695Y-98377238D01*
X142013695Y-98377238D02*
X142108933Y-98329619D01*
X142108933Y-98329619D02*
X142347028Y-98329619D01*
X142347028Y-98329619D02*
X142442266Y-98377238D01*
X142442266Y-98377238D02*
X142489885Y-98424857D01*
X142489885Y-98424857D02*
X142537504Y-98520095D01*
X142537504Y-98520095D02*
X142537504Y-98615333D01*
X142537504Y-98615333D02*
X142489885Y-98758190D01*
X142489885Y-98758190D02*
X141918457Y-99329619D01*
X141918457Y-99329619D02*
X142537504Y-99329619D01*
X140632742Y-95279619D02*
X140299409Y-94803428D01*
X140061314Y-95279619D02*
X140061314Y-94279619D01*
X140061314Y-94279619D02*
X140442266Y-94279619D01*
X140442266Y-94279619D02*
X140537504Y-94327238D01*
X140537504Y-94327238D02*
X140585123Y-94374857D01*
X140585123Y-94374857D02*
X140632742Y-94470095D01*
X140632742Y-94470095D02*
X140632742Y-94612952D01*
X140632742Y-94612952D02*
X140585123Y-94708190D01*
X140585123Y-94708190D02*
X140537504Y-94755809D01*
X140537504Y-94755809D02*
X140442266Y-94803428D01*
X140442266Y-94803428D02*
X140061314Y-94803428D01*
X141585123Y-95279619D02*
X141013695Y-95279619D01*
X141299409Y-95279619D02*
X141299409Y-94279619D01*
X141299409Y-94279619D02*
X141204171Y-94422476D01*
X141204171Y-94422476D02*
X141108933Y-94517714D01*
X141108933Y-94517714D02*
X141013695Y-94565333D01*
X142537504Y-95279619D02*
X141966076Y-95279619D01*
X142251790Y-95279619D02*
X142251790Y-94279619D01*
X142251790Y-94279619D02*
X142156552Y-94422476D01*
X142156552Y-94422476D02*
X142061314Y-94517714D01*
X142061314Y-94517714D02*
X141966076Y-94565333D01*
X130632742Y-99179619D02*
X130299409Y-98703428D01*
X130061314Y-99179619D02*
X130061314Y-98179619D01*
X130061314Y-98179619D02*
X130442266Y-98179619D01*
X130442266Y-98179619D02*
X130537504Y-98227238D01*
X130537504Y-98227238D02*
X130585123Y-98274857D01*
X130585123Y-98274857D02*
X130632742Y-98370095D01*
X130632742Y-98370095D02*
X130632742Y-98512952D01*
X130632742Y-98512952D02*
X130585123Y-98608190D01*
X130585123Y-98608190D02*
X130537504Y-98655809D01*
X130537504Y-98655809D02*
X130442266Y-98703428D01*
X130442266Y-98703428D02*
X130061314Y-98703428D01*
X131585123Y-99179619D02*
X131013695Y-99179619D01*
X131299409Y-99179619D02*
X131299409Y-98179619D01*
X131299409Y-98179619D02*
X131204171Y-98322476D01*
X131204171Y-98322476D02*
X131108933Y-98417714D01*
X131108933Y-98417714D02*
X131013695Y-98465333D01*
X132204171Y-98179619D02*
X132299409Y-98179619D01*
X132299409Y-98179619D02*
X132394647Y-98227238D01*
X132394647Y-98227238D02*
X132442266Y-98274857D01*
X132442266Y-98274857D02*
X132489885Y-98370095D01*
X132489885Y-98370095D02*
X132537504Y-98560571D01*
X132537504Y-98560571D02*
X132537504Y-98798666D01*
X132537504Y-98798666D02*
X132489885Y-98989142D01*
X132489885Y-98989142D02*
X132442266Y-99084380D01*
X132442266Y-99084380D02*
X132394647Y-99132000D01*
X132394647Y-99132000D02*
X132299409Y-99179619D01*
X132299409Y-99179619D02*
X132204171Y-99179619D01*
X132204171Y-99179619D02*
X132108933Y-99132000D01*
X132108933Y-99132000D02*
X132061314Y-99084380D01*
X132061314Y-99084380D02*
X132013695Y-98989142D01*
X132013695Y-98989142D02*
X131966076Y-98798666D01*
X131966076Y-98798666D02*
X131966076Y-98560571D01*
X131966076Y-98560571D02*
X132013695Y-98370095D01*
X132013695Y-98370095D02*
X132061314Y-98274857D01*
X132061314Y-98274857D02*
X132108933Y-98227238D01*
X132108933Y-98227238D02*
X132204171Y-98179619D01*
X130918933Y-95174619D02*
X130585600Y-94698428D01*
X130347505Y-95174619D02*
X130347505Y-94174619D01*
X130347505Y-94174619D02*
X130728457Y-94174619D01*
X130728457Y-94174619D02*
X130823695Y-94222238D01*
X130823695Y-94222238D02*
X130871314Y-94269857D01*
X130871314Y-94269857D02*
X130918933Y-94365095D01*
X130918933Y-94365095D02*
X130918933Y-94507952D01*
X130918933Y-94507952D02*
X130871314Y-94603190D01*
X130871314Y-94603190D02*
X130823695Y-94650809D01*
X130823695Y-94650809D02*
X130728457Y-94698428D01*
X130728457Y-94698428D02*
X130347505Y-94698428D01*
X131395124Y-95174619D02*
X131585600Y-95174619D01*
X131585600Y-95174619D02*
X131680838Y-95127000D01*
X131680838Y-95127000D02*
X131728457Y-95079380D01*
X131728457Y-95079380D02*
X131823695Y-94936523D01*
X131823695Y-94936523D02*
X131871314Y-94746047D01*
X131871314Y-94746047D02*
X131871314Y-94365095D01*
X131871314Y-94365095D02*
X131823695Y-94269857D01*
X131823695Y-94269857D02*
X131776076Y-94222238D01*
X131776076Y-94222238D02*
X131680838Y-94174619D01*
X131680838Y-94174619D02*
X131490362Y-94174619D01*
X131490362Y-94174619D02*
X131395124Y-94222238D01*
X131395124Y-94222238D02*
X131347505Y-94269857D01*
X131347505Y-94269857D02*
X131299886Y-94365095D01*
X131299886Y-94365095D02*
X131299886Y-94603190D01*
X131299886Y-94603190D02*
X131347505Y-94698428D01*
X131347505Y-94698428D02*
X131395124Y-94746047D01*
X131395124Y-94746047D02*
X131490362Y-94793666D01*
X131490362Y-94793666D02*
X131680838Y-94793666D01*
X131680838Y-94793666D02*
X131776076Y-94746047D01*
X131776076Y-94746047D02*
X131823695Y-94698428D01*
X131823695Y-94698428D02*
X131871314Y-94603190D01*
X140918933Y-89329619D02*
X140585600Y-88853428D01*
X140347505Y-89329619D02*
X140347505Y-88329619D01*
X140347505Y-88329619D02*
X140728457Y-88329619D01*
X140728457Y-88329619D02*
X140823695Y-88377238D01*
X140823695Y-88377238D02*
X140871314Y-88424857D01*
X140871314Y-88424857D02*
X140918933Y-88520095D01*
X140918933Y-88520095D02*
X140918933Y-88662952D01*
X140918933Y-88662952D02*
X140871314Y-88758190D01*
X140871314Y-88758190D02*
X140823695Y-88805809D01*
X140823695Y-88805809D02*
X140728457Y-88853428D01*
X140728457Y-88853428D02*
X140347505Y-88853428D01*
X141490362Y-88758190D02*
X141395124Y-88710571D01*
X141395124Y-88710571D02*
X141347505Y-88662952D01*
X141347505Y-88662952D02*
X141299886Y-88567714D01*
X141299886Y-88567714D02*
X141299886Y-88520095D01*
X141299886Y-88520095D02*
X141347505Y-88424857D01*
X141347505Y-88424857D02*
X141395124Y-88377238D01*
X141395124Y-88377238D02*
X141490362Y-88329619D01*
X141490362Y-88329619D02*
X141680838Y-88329619D01*
X141680838Y-88329619D02*
X141776076Y-88377238D01*
X141776076Y-88377238D02*
X141823695Y-88424857D01*
X141823695Y-88424857D02*
X141871314Y-88520095D01*
X141871314Y-88520095D02*
X141871314Y-88567714D01*
X141871314Y-88567714D02*
X141823695Y-88662952D01*
X141823695Y-88662952D02*
X141776076Y-88710571D01*
X141776076Y-88710571D02*
X141680838Y-88758190D01*
X141680838Y-88758190D02*
X141490362Y-88758190D01*
X141490362Y-88758190D02*
X141395124Y-88805809D01*
X141395124Y-88805809D02*
X141347505Y-88853428D01*
X141347505Y-88853428D02*
X141299886Y-88948666D01*
X141299886Y-88948666D02*
X141299886Y-89139142D01*
X141299886Y-89139142D02*
X141347505Y-89234380D01*
X141347505Y-89234380D02*
X141395124Y-89282000D01*
X141395124Y-89282000D02*
X141490362Y-89329619D01*
X141490362Y-89329619D02*
X141680838Y-89329619D01*
X141680838Y-89329619D02*
X141776076Y-89282000D01*
X141776076Y-89282000D02*
X141823695Y-89234380D01*
X141823695Y-89234380D02*
X141871314Y-89139142D01*
X141871314Y-89139142D02*
X141871314Y-88948666D01*
X141871314Y-88948666D02*
X141823695Y-88853428D01*
X141823695Y-88853428D02*
X141776076Y-88805809D01*
X141776076Y-88805809D02*
X141680838Y-88758190D01*
X140918933Y-85279619D02*
X140585600Y-84803428D01*
X140347505Y-85279619D02*
X140347505Y-84279619D01*
X140347505Y-84279619D02*
X140728457Y-84279619D01*
X140728457Y-84279619D02*
X140823695Y-84327238D01*
X140823695Y-84327238D02*
X140871314Y-84374857D01*
X140871314Y-84374857D02*
X140918933Y-84470095D01*
X140918933Y-84470095D02*
X140918933Y-84612952D01*
X140918933Y-84612952D02*
X140871314Y-84708190D01*
X140871314Y-84708190D02*
X140823695Y-84755809D01*
X140823695Y-84755809D02*
X140728457Y-84803428D01*
X140728457Y-84803428D02*
X140347505Y-84803428D01*
X141252267Y-84279619D02*
X141918933Y-84279619D01*
X141918933Y-84279619D02*
X141490362Y-85279619D01*
X130918933Y-89179619D02*
X130585600Y-88703428D01*
X130347505Y-89179619D02*
X130347505Y-88179619D01*
X130347505Y-88179619D02*
X130728457Y-88179619D01*
X130728457Y-88179619D02*
X130823695Y-88227238D01*
X130823695Y-88227238D02*
X130871314Y-88274857D01*
X130871314Y-88274857D02*
X130918933Y-88370095D01*
X130918933Y-88370095D02*
X130918933Y-88512952D01*
X130918933Y-88512952D02*
X130871314Y-88608190D01*
X130871314Y-88608190D02*
X130823695Y-88655809D01*
X130823695Y-88655809D02*
X130728457Y-88703428D01*
X130728457Y-88703428D02*
X130347505Y-88703428D01*
X131776076Y-88179619D02*
X131585600Y-88179619D01*
X131585600Y-88179619D02*
X131490362Y-88227238D01*
X131490362Y-88227238D02*
X131442743Y-88274857D01*
X131442743Y-88274857D02*
X131347505Y-88417714D01*
X131347505Y-88417714D02*
X131299886Y-88608190D01*
X131299886Y-88608190D02*
X131299886Y-88989142D01*
X131299886Y-88989142D02*
X131347505Y-89084380D01*
X131347505Y-89084380D02*
X131395124Y-89132000D01*
X131395124Y-89132000D02*
X131490362Y-89179619D01*
X131490362Y-89179619D02*
X131680838Y-89179619D01*
X131680838Y-89179619D02*
X131776076Y-89132000D01*
X131776076Y-89132000D02*
X131823695Y-89084380D01*
X131823695Y-89084380D02*
X131871314Y-88989142D01*
X131871314Y-88989142D02*
X131871314Y-88751047D01*
X131871314Y-88751047D02*
X131823695Y-88655809D01*
X131823695Y-88655809D02*
X131776076Y-88608190D01*
X131776076Y-88608190D02*
X131680838Y-88560571D01*
X131680838Y-88560571D02*
X131490362Y-88560571D01*
X131490362Y-88560571D02*
X131395124Y-88608190D01*
X131395124Y-88608190D02*
X131347505Y-88655809D01*
X131347505Y-88655809D02*
X131299886Y-88751047D01*
X130918933Y-85129619D02*
X130585600Y-84653428D01*
X130347505Y-85129619D02*
X130347505Y-84129619D01*
X130347505Y-84129619D02*
X130728457Y-84129619D01*
X130728457Y-84129619D02*
X130823695Y-84177238D01*
X130823695Y-84177238D02*
X130871314Y-84224857D01*
X130871314Y-84224857D02*
X130918933Y-84320095D01*
X130918933Y-84320095D02*
X130918933Y-84462952D01*
X130918933Y-84462952D02*
X130871314Y-84558190D01*
X130871314Y-84558190D02*
X130823695Y-84605809D01*
X130823695Y-84605809D02*
X130728457Y-84653428D01*
X130728457Y-84653428D02*
X130347505Y-84653428D01*
X131823695Y-84129619D02*
X131347505Y-84129619D01*
X131347505Y-84129619D02*
X131299886Y-84605809D01*
X131299886Y-84605809D02*
X131347505Y-84558190D01*
X131347505Y-84558190D02*
X131442743Y-84510571D01*
X131442743Y-84510571D02*
X131680838Y-84510571D01*
X131680838Y-84510571D02*
X131776076Y-84558190D01*
X131776076Y-84558190D02*
X131823695Y-84605809D01*
X131823695Y-84605809D02*
X131871314Y-84701047D01*
X131871314Y-84701047D02*
X131871314Y-84939142D01*
X131871314Y-84939142D02*
X131823695Y-85034380D01*
X131823695Y-85034380D02*
X131776076Y-85082000D01*
X131776076Y-85082000D02*
X131680838Y-85129619D01*
X131680838Y-85129619D02*
X131442743Y-85129619D01*
X131442743Y-85129619D02*
X131347505Y-85082000D01*
X131347505Y-85082000D02*
X131299886Y-85034380D01*
X141108933Y-79329619D02*
X140775600Y-78853428D01*
X140537505Y-79329619D02*
X140537505Y-78329619D01*
X140537505Y-78329619D02*
X140918457Y-78329619D01*
X140918457Y-78329619D02*
X141013695Y-78377238D01*
X141013695Y-78377238D02*
X141061314Y-78424857D01*
X141061314Y-78424857D02*
X141108933Y-78520095D01*
X141108933Y-78520095D02*
X141108933Y-78662952D01*
X141108933Y-78662952D02*
X141061314Y-78758190D01*
X141061314Y-78758190D02*
X141013695Y-78805809D01*
X141013695Y-78805809D02*
X140918457Y-78853428D01*
X140918457Y-78853428D02*
X140537505Y-78853428D01*
X141966076Y-78662952D02*
X141966076Y-79329619D01*
X141727981Y-78282000D02*
X141489886Y-78996285D01*
X141489886Y-78996285D02*
X142108933Y-78996285D01*
X141108933Y-75279619D02*
X140775600Y-74803428D01*
X140537505Y-75279619D02*
X140537505Y-74279619D01*
X140537505Y-74279619D02*
X140918457Y-74279619D01*
X140918457Y-74279619D02*
X141013695Y-74327238D01*
X141013695Y-74327238D02*
X141061314Y-74374857D01*
X141061314Y-74374857D02*
X141108933Y-74470095D01*
X141108933Y-74470095D02*
X141108933Y-74612952D01*
X141108933Y-74612952D02*
X141061314Y-74708190D01*
X141061314Y-74708190D02*
X141013695Y-74755809D01*
X141013695Y-74755809D02*
X140918457Y-74803428D01*
X140918457Y-74803428D02*
X140537505Y-74803428D01*
X141442267Y-74279619D02*
X142061314Y-74279619D01*
X142061314Y-74279619D02*
X141727981Y-74660571D01*
X141727981Y-74660571D02*
X141870838Y-74660571D01*
X141870838Y-74660571D02*
X141966076Y-74708190D01*
X141966076Y-74708190D02*
X142013695Y-74755809D01*
X142013695Y-74755809D02*
X142061314Y-74851047D01*
X142061314Y-74851047D02*
X142061314Y-75089142D01*
X142061314Y-75089142D02*
X142013695Y-75184380D01*
X142013695Y-75184380D02*
X141966076Y-75232000D01*
X141966076Y-75232000D02*
X141870838Y-75279619D01*
X141870838Y-75279619D02*
X141585124Y-75279619D01*
X141585124Y-75279619D02*
X141489886Y-75232000D01*
X141489886Y-75232000D02*
X141442267Y-75184380D01*
X130918933Y-79329619D02*
X130585600Y-78853428D01*
X130347505Y-79329619D02*
X130347505Y-78329619D01*
X130347505Y-78329619D02*
X130728457Y-78329619D01*
X130728457Y-78329619D02*
X130823695Y-78377238D01*
X130823695Y-78377238D02*
X130871314Y-78424857D01*
X130871314Y-78424857D02*
X130918933Y-78520095D01*
X130918933Y-78520095D02*
X130918933Y-78662952D01*
X130918933Y-78662952D02*
X130871314Y-78758190D01*
X130871314Y-78758190D02*
X130823695Y-78805809D01*
X130823695Y-78805809D02*
X130728457Y-78853428D01*
X130728457Y-78853428D02*
X130347505Y-78853428D01*
X131299886Y-78424857D02*
X131347505Y-78377238D01*
X131347505Y-78377238D02*
X131442743Y-78329619D01*
X131442743Y-78329619D02*
X131680838Y-78329619D01*
X131680838Y-78329619D02*
X131776076Y-78377238D01*
X131776076Y-78377238D02*
X131823695Y-78424857D01*
X131823695Y-78424857D02*
X131871314Y-78520095D01*
X131871314Y-78520095D02*
X131871314Y-78615333D01*
X131871314Y-78615333D02*
X131823695Y-78758190D01*
X131823695Y-78758190D02*
X131252267Y-79329619D01*
X131252267Y-79329619D02*
X131871314Y-79329619D01*
X130918933Y-75329619D02*
X130585600Y-74853428D01*
X130347505Y-75329619D02*
X130347505Y-74329619D01*
X130347505Y-74329619D02*
X130728457Y-74329619D01*
X130728457Y-74329619D02*
X130823695Y-74377238D01*
X130823695Y-74377238D02*
X130871314Y-74424857D01*
X130871314Y-74424857D02*
X130918933Y-74520095D01*
X130918933Y-74520095D02*
X130918933Y-74662952D01*
X130918933Y-74662952D02*
X130871314Y-74758190D01*
X130871314Y-74758190D02*
X130823695Y-74805809D01*
X130823695Y-74805809D02*
X130728457Y-74853428D01*
X130728457Y-74853428D02*
X130347505Y-74853428D01*
X131871314Y-75329619D02*
X131299886Y-75329619D01*
X131585600Y-75329619D02*
X131585600Y-74329619D01*
X131585600Y-74329619D02*
X131490362Y-74472476D01*
X131490362Y-74472476D02*
X131395124Y-74567714D01*
X131395124Y-74567714D02*
X131299886Y-74615333D01*
X186600419Y-86578133D02*
X187314704Y-86578133D01*
X187314704Y-86578133D02*
X187457561Y-86625752D01*
X187457561Y-86625752D02*
X187552800Y-86720990D01*
X187552800Y-86720990D02*
X187600419Y-86863847D01*
X187600419Y-86863847D02*
X187600419Y-86959085D01*
X186695657Y-86149561D02*
X186648038Y-86101942D01*
X186648038Y-86101942D02*
X186600419Y-86006704D01*
X186600419Y-86006704D02*
X186600419Y-85768609D01*
X186600419Y-85768609D02*
X186648038Y-85673371D01*
X186648038Y-85673371D02*
X186695657Y-85625752D01*
X186695657Y-85625752D02*
X186790895Y-85578133D01*
X186790895Y-85578133D02*
X186886133Y-85578133D01*
X186886133Y-85578133D02*
X187028990Y-85625752D01*
X187028990Y-85625752D02*
X187600419Y-86197180D01*
X187600419Y-86197180D02*
X187600419Y-85578133D01*
X125752266Y-55539619D02*
X125752266Y-56253904D01*
X125752266Y-56253904D02*
X125704647Y-56396761D01*
X125704647Y-56396761D02*
X125609409Y-56492000D01*
X125609409Y-56492000D02*
X125466552Y-56539619D01*
X125466552Y-56539619D02*
X125371314Y-56539619D01*
X126752266Y-56539619D02*
X126180838Y-56539619D01*
X126466552Y-56539619D02*
X126466552Y-55539619D01*
X126466552Y-55539619D02*
X126371314Y-55682476D01*
X126371314Y-55682476D02*
X126276076Y-55777714D01*
X126276076Y-55777714D02*
X126180838Y-55825333D01*
D12*
X115755600Y-71834800D02*
X117085600Y-71834800D01*
X118415600Y-74434800D02*
X118415600Y-92274800D01*
X115755600Y-73164800D02*
X115755600Y-71834800D01*
X115755600Y-74434800D02*
X115755600Y-92274800D01*
X115755600Y-92274800D02*
X118415600Y-92274800D01*
X115755600Y-74434800D02*
X118415600Y-74434800D01*
X159245600Y-137964800D02*
X152925600Y-137964800D01*
X152685600Y-124444800D02*
X152685600Y-124944800D01*
X158785600Y-124684800D02*
X158785600Y-137964800D01*
X152925600Y-124684800D02*
X152925600Y-137964800D01*
X159245600Y-124684800D02*
X152925600Y-124684800D01*
X153425600Y-124444800D02*
X152685600Y-124444800D01*
X159245600Y-124684800D02*
X159245600Y-137964800D01*
X153485600Y-124684800D02*
X153485600Y-137964800D01*
X159245600Y-117964800D02*
X152925600Y-117964800D01*
X152685600Y-104444800D02*
X152685600Y-104944800D01*
X158785600Y-104684800D02*
X158785600Y-117964800D01*
X152925600Y-104684800D02*
X152925600Y-117964800D01*
X159245600Y-104684800D02*
X152925600Y-104684800D01*
X153425600Y-104444800D02*
X152685600Y-104444800D01*
X159245600Y-104684800D02*
X159245600Y-117964800D01*
X153485600Y-104684800D02*
X153485600Y-117964800D01*
X153485600Y-87224800D02*
X153485600Y-100504800D01*
X159245600Y-87224800D02*
X159245600Y-100504800D01*
X153425600Y-86984800D02*
X152685600Y-86984800D01*
X159245600Y-87224800D02*
X152925600Y-87224800D01*
X152925600Y-87224800D02*
X152925600Y-100504800D01*
X158785600Y-87224800D02*
X158785600Y-100504800D01*
X152685600Y-86984800D02*
X152685600Y-87484800D01*
X159245600Y-100504800D02*
X152925600Y-100504800D01*
X159245600Y-82964800D02*
X152925600Y-82964800D01*
X152685600Y-69444800D02*
X152685600Y-69944800D01*
X158785600Y-69684800D02*
X158785600Y-82964800D01*
X152925600Y-69684800D02*
X152925600Y-82964800D01*
X159245600Y-69684800D02*
X152925600Y-69684800D01*
X153425600Y-69444800D02*
X152685600Y-69444800D01*
X159245600Y-69684800D02*
X159245600Y-82964800D01*
X153485600Y-69684800D02*
X153485600Y-82964800D01*
X159245600Y-65424800D02*
X152925600Y-65424800D01*
X152685600Y-51904800D02*
X152685600Y-52404800D01*
X158785600Y-52144800D02*
X158785600Y-65424800D01*
X152925600Y-52144800D02*
X152925600Y-65424800D01*
X159245600Y-52144800D02*
X152925600Y-52144800D01*
X153425600Y-51904800D02*
X152685600Y-51904800D01*
X159245600Y-52144800D02*
X159245600Y-65424800D01*
X153485600Y-52144800D02*
X153485600Y-65424800D01*
X159245600Y-47844800D02*
X152925600Y-47844800D01*
X152685600Y-34324800D02*
X152685600Y-34824800D01*
X158785600Y-34564800D02*
X158785600Y-47844800D01*
X152925600Y-34564800D02*
X152925600Y-47844800D01*
X159245600Y-34564800D02*
X152925600Y-34564800D01*
X153425600Y-34324800D02*
X152685600Y-34324800D01*
X159245600Y-34564800D02*
X159245600Y-47844800D01*
X153485600Y-34564800D02*
X153485600Y-47844800D01*
X144545600Y-129874800D02*
X144545600Y-130204800D01*
X138005600Y-130204800D02*
X138005600Y-129874800D01*
X138005600Y-132284800D02*
X138005600Y-132614800D01*
X138005600Y-132614800D02*
X144545600Y-132614800D01*
X138005600Y-129874800D02*
X144545600Y-129874800D01*
X144545600Y-132614800D02*
X144545600Y-132284800D01*
X144545600Y-125824800D02*
X144545600Y-126154800D01*
X138005600Y-126154800D02*
X138005600Y-125824800D01*
X138005600Y-128234800D02*
X138005600Y-128564800D01*
X138005600Y-128564800D02*
X144545600Y-128564800D01*
X138005600Y-125824800D02*
X144545600Y-125824800D01*
X144545600Y-128564800D02*
X144545600Y-128234800D01*
X134545600Y-129724800D02*
X134545600Y-130054800D01*
X128005600Y-130054800D02*
X128005600Y-129724800D01*
X128005600Y-132134800D02*
X128005600Y-132464800D01*
X128005600Y-132464800D02*
X134545600Y-132464800D01*
X128005600Y-129724800D02*
X134545600Y-129724800D01*
X134545600Y-132464800D02*
X134545600Y-132134800D01*
X134545600Y-125674800D02*
X134545600Y-126004800D01*
X128005600Y-126004800D02*
X128005600Y-125674800D01*
X128005600Y-128084800D02*
X128005600Y-128414800D01*
X128005600Y-128414800D02*
X134545600Y-128414800D01*
X128005600Y-125674800D02*
X134545600Y-125674800D01*
X134545600Y-128414800D02*
X134545600Y-128084800D01*
X144355600Y-122614800D02*
X144355600Y-122284800D01*
X137815600Y-119874800D02*
X144355600Y-119874800D01*
X137815600Y-122614800D02*
X144355600Y-122614800D01*
X137815600Y-122284800D02*
X137815600Y-122614800D01*
X137815600Y-120204800D02*
X137815600Y-119874800D01*
X144355600Y-119874800D02*
X144355600Y-120204800D01*
X144355600Y-118564800D02*
X144355600Y-118234800D01*
X137815600Y-115824800D02*
X144355600Y-115824800D01*
X137815600Y-118564800D02*
X144355600Y-118564800D01*
X137815600Y-118234800D02*
X137815600Y-118564800D01*
X137815600Y-116154800D02*
X137815600Y-115824800D01*
X144355600Y-115824800D02*
X144355600Y-116154800D01*
X134355600Y-122614800D02*
X134355600Y-122284800D01*
X127815600Y-119874800D02*
X134355600Y-119874800D01*
X127815600Y-122614800D02*
X134355600Y-122614800D01*
X127815600Y-122284800D02*
X127815600Y-122614800D01*
X127815600Y-120204800D02*
X127815600Y-119874800D01*
X134355600Y-119874800D02*
X134355600Y-120204800D01*
X134355600Y-118564800D02*
X134355600Y-118234800D01*
X127815600Y-115824800D02*
X134355600Y-115824800D01*
X127815600Y-118564800D02*
X134355600Y-118564800D01*
X127815600Y-118234800D02*
X127815600Y-118564800D01*
X127815600Y-116154800D02*
X127815600Y-115824800D01*
X134355600Y-115824800D02*
X134355600Y-116154800D01*
X144545600Y-109874800D02*
X144545600Y-110204800D01*
X138005600Y-110204800D02*
X138005600Y-109874800D01*
X138005600Y-112284800D02*
X138005600Y-112614800D01*
X138005600Y-112614800D02*
X144545600Y-112614800D01*
X138005600Y-109874800D02*
X144545600Y-109874800D01*
X144545600Y-112614800D02*
X144545600Y-112284800D01*
X144545600Y-105824800D02*
X144545600Y-106154800D01*
X138005600Y-106154800D02*
X138005600Y-105824800D01*
X138005600Y-108234800D02*
X138005600Y-108564800D01*
X138005600Y-108564800D02*
X144545600Y-108564800D01*
X138005600Y-105824800D02*
X144545600Y-105824800D01*
X144545600Y-108564800D02*
X144545600Y-108234800D01*
X134545600Y-109724800D02*
X134545600Y-110054800D01*
X128005600Y-110054800D02*
X128005600Y-109724800D01*
X128005600Y-112134800D02*
X128005600Y-112464800D01*
X128005600Y-112464800D02*
X134545600Y-112464800D01*
X128005600Y-109724800D02*
X134545600Y-109724800D01*
X134545600Y-112464800D02*
X134545600Y-112134800D01*
X134545600Y-105674800D02*
X134545600Y-106004800D01*
X128005600Y-106004800D02*
X128005600Y-105674800D01*
X128005600Y-108084800D02*
X128005600Y-108414800D01*
X128005600Y-108414800D02*
X134545600Y-108414800D01*
X128005600Y-105674800D02*
X134545600Y-105674800D01*
X134545600Y-108414800D02*
X134545600Y-108084800D01*
X144545600Y-102614800D02*
X144545600Y-102284800D01*
X138005600Y-99874800D02*
X144545600Y-99874800D01*
X138005600Y-102614800D02*
X144545600Y-102614800D01*
X138005600Y-102284800D02*
X138005600Y-102614800D01*
X138005600Y-100204800D02*
X138005600Y-99874800D01*
X144545600Y-99874800D02*
X144545600Y-100204800D01*
X144545600Y-98564800D02*
X144545600Y-98234800D01*
X138005600Y-95824800D02*
X144545600Y-95824800D01*
X138005600Y-98564800D02*
X144545600Y-98564800D01*
X138005600Y-98234800D02*
X138005600Y-98564800D01*
X138005600Y-96154800D02*
X138005600Y-95824800D01*
X144545600Y-95824800D02*
X144545600Y-96154800D01*
X134545600Y-102464800D02*
X134545600Y-102134800D01*
X128005600Y-99724800D02*
X134545600Y-99724800D01*
X128005600Y-102464800D02*
X134545600Y-102464800D01*
X128005600Y-102134800D02*
X128005600Y-102464800D01*
X128005600Y-100054800D02*
X128005600Y-99724800D01*
X134545600Y-99724800D02*
X134545600Y-100054800D01*
X134355600Y-95824800D02*
X134355600Y-96154800D01*
X127815600Y-96154800D02*
X127815600Y-95824800D01*
X127815600Y-98234800D02*
X127815600Y-98564800D01*
X127815600Y-98564800D02*
X134355600Y-98564800D01*
X127815600Y-95824800D02*
X134355600Y-95824800D01*
X134355600Y-98564800D02*
X134355600Y-98234800D01*
X144355600Y-89874800D02*
X144355600Y-90204800D01*
X137815600Y-90204800D02*
X137815600Y-89874800D01*
X137815600Y-92284800D02*
X137815600Y-92614800D01*
X137815600Y-92614800D02*
X144355600Y-92614800D01*
X137815600Y-89874800D02*
X144355600Y-89874800D01*
X144355600Y-92614800D02*
X144355600Y-92284800D01*
X144355600Y-85824800D02*
X144355600Y-86154800D01*
X137815600Y-86154800D02*
X137815600Y-85824800D01*
X137815600Y-88234800D02*
X137815600Y-88564800D01*
X137815600Y-88564800D02*
X144355600Y-88564800D01*
X137815600Y-85824800D02*
X144355600Y-85824800D01*
X144355600Y-88564800D02*
X144355600Y-88234800D01*
X134355600Y-89724800D02*
X134355600Y-90054800D01*
X127815600Y-90054800D02*
X127815600Y-89724800D01*
X127815600Y-92134800D02*
X127815600Y-92464800D01*
X127815600Y-92464800D02*
X134355600Y-92464800D01*
X127815600Y-89724800D02*
X134355600Y-89724800D01*
X134355600Y-92464800D02*
X134355600Y-92134800D01*
X134355600Y-85674800D02*
X134355600Y-86004800D01*
X127815600Y-86004800D02*
X127815600Y-85674800D01*
X127815600Y-88084800D02*
X127815600Y-88414800D01*
X127815600Y-88414800D02*
X134355600Y-88414800D01*
X127815600Y-85674800D02*
X134355600Y-85674800D01*
X134355600Y-88414800D02*
X134355600Y-88084800D01*
X144545600Y-79874800D02*
X144545600Y-80204800D01*
X138005600Y-80204800D02*
X138005600Y-79874800D01*
X138005600Y-82284800D02*
X138005600Y-82614800D01*
X138005600Y-82614800D02*
X144545600Y-82614800D01*
X138005600Y-79874800D02*
X144545600Y-79874800D01*
X144545600Y-82614800D02*
X144545600Y-82284800D01*
X144545600Y-78564800D02*
X144545600Y-78234800D01*
X138005600Y-75824800D02*
X144545600Y-75824800D01*
X138005600Y-78564800D02*
X144545600Y-78564800D01*
X138005600Y-78234800D02*
X138005600Y-78564800D01*
X138005600Y-76154800D02*
X138005600Y-75824800D01*
X144545600Y-75824800D02*
X144545600Y-76154800D01*
X134355600Y-79874800D02*
X134355600Y-80204800D01*
X127815600Y-80204800D02*
X127815600Y-79874800D01*
X127815600Y-82284800D02*
X127815600Y-82614800D01*
X127815600Y-82614800D02*
X134355600Y-82614800D01*
X127815600Y-79874800D02*
X134355600Y-79874800D01*
X134355600Y-82614800D02*
X134355600Y-82284800D01*
X134355600Y-75874800D02*
X134355600Y-76204800D01*
X127815600Y-76204800D02*
X127815600Y-75874800D01*
X127815600Y-78284800D02*
X127815600Y-78614800D01*
X127815600Y-78614800D02*
X134355600Y-78614800D01*
X127815600Y-75874800D02*
X134355600Y-75874800D01*
X134355600Y-78614800D02*
X134355600Y-78284800D01*
X182765600Y-101244800D02*
G75*
G03*
X182765600Y-101244800I-1680000J0D01*
G01*
X184985600Y-86244800D02*
G75*
G03*
X184985600Y-86244800I-900000J0D01*
G01*
X184985600Y-126244800D02*
G75*
G03*
X184985600Y-126244800I-900000J0D01*
G01*
X184985600Y-46244800D02*
G75*
G03*
X184985600Y-46244800I-900000J0D01*
G01*
X184985600Y-81244800D02*
G75*
G03*
X184985600Y-81244800I-900000J0D01*
G01*
X182585600Y-106244800D02*
G75*
G03*
X182585600Y-106244800I-1500000J0D01*
G01*
X182585600Y-96244800D02*
G75*
G03*
X182585600Y-96244800I-1500000J0D01*
G01*
X182585600Y-56244800D02*
G75*
G03*
X182585600Y-56244800I-1500000J0D01*
G01*
X182765600Y-121244800D02*
G75*
G03*
X182765600Y-121244800I-1680000J0D01*
G01*
X182765600Y-71244800D02*
G75*
G03*
X182765600Y-71244800I-1680000J0D01*
G01*
X182585600Y-46244800D02*
G75*
G03*
X182585600Y-46244800I-1500000J0D01*
G01*
X182585600Y-116244800D02*
G75*
G03*
X182585600Y-116244800I-1500000J0D01*
G01*
X184985600Y-131244800D02*
G75*
G03*
X184985600Y-131244800I-900000J0D01*
G01*
X184985600Y-96244800D02*
G75*
G03*
X184985600Y-96244800I-900000J0D01*
G01*
X184985600Y-101244800D02*
G75*
G03*
X184985600Y-101244800I-900000J0D01*
G01*
X184985600Y-71244800D02*
G75*
G03*
X184985600Y-71244800I-900000J0D01*
G01*
X182585600Y-76244800D02*
G75*
G03*
X182585600Y-76244800I-1500000J0D01*
G01*
X184985600Y-111244800D02*
G75*
G03*
X184985600Y-111244800I-900000J0D01*
G01*
X182765600Y-91244800D02*
G75*
G03*
X182765600Y-91244800I-1680000J0D01*
G01*
X182585600Y-126244800D02*
G75*
G03*
X182585600Y-126244800I-1500000J0D01*
G01*
X184985600Y-121244800D02*
G75*
G03*
X184985600Y-121244800I-900000J0D01*
G01*
X184985600Y-106244800D02*
G75*
G03*
X184985600Y-106244800I-900000J0D01*
G01*
X182765600Y-51244800D02*
G75*
G03*
X182765600Y-51244800I-1680000J0D01*
G01*
X182765600Y-111244800D02*
G75*
G03*
X182765600Y-111244800I-1680000J0D01*
G01*
X184985600Y-116244800D02*
G75*
G03*
X184985600Y-116244800I-900000J0D01*
G01*
X184985600Y-56244800D02*
G75*
G03*
X184985600Y-56244800I-900000J0D01*
G01*
X182765600Y-131244800D02*
G75*
G03*
X182765600Y-131244800I-1680000J0D01*
G01*
X184985600Y-66244800D02*
G75*
G03*
X184985600Y-66244800I-900000J0D01*
G01*
X184985600Y-51244800D02*
G75*
G03*
X184985600Y-51244800I-900000J0D01*
G01*
X184985600Y-76244800D02*
G75*
G03*
X184985600Y-76244800I-900000J0D01*
G01*
X182585600Y-86244800D02*
G75*
G03*
X182585600Y-86244800I-1500000J0D01*
G01*
X184985600Y-61244800D02*
G75*
G03*
X184985600Y-61244800I-900000J0D01*
G01*
X184985600Y-91244800D02*
G75*
G03*
X184985600Y-91244800I-900000J0D01*
G01*
X184985600Y-41244800D02*
G75*
G03*
X184985600Y-41244800I-900000J0D01*
G01*
X182585600Y-66244800D02*
G75*
G03*
X182585600Y-66244800I-1500000J0D01*
G01*
X182765600Y-61244800D02*
G75*
G03*
X182765600Y-61244800I-1680000J0D01*
G01*
X182765600Y-81244800D02*
G75*
G03*
X182765600Y-81244800I-1680000J0D01*
G01*
X179405601Y-41244800D02*
G75*
G03*
X179602249Y-42033512I1679999J0D01*
G01*
X181874600Y-39760800D02*
G75*
G03*
X180296511Y-39760847I-789000J-1483995D01*
G01*
X182569600Y-42033800D02*
G75*
G03*
X182569553Y-40455711I-1483995J789000D01*
G01*
X180296600Y-42728800D02*
G75*
G03*
X181874689Y-42728752I789000J1484000D01*
G01*
X179601601Y-40455800D02*
G75*
G03*
X179405151Y-41274183I1483994J-788998D01*
G01*
X180109600Y-70064800D02*
X180016600Y-69970800D01*
X180109600Y-120064800D02*
X180016600Y-119970800D01*
X182154600Y-52519800D02*
X182061600Y-52425800D01*
X179869600Y-60234800D02*
X179811600Y-60175800D01*
X186145600Y-38684800D02*
X186145600Y-133804800D01*
X182360600Y-92314800D02*
X182301600Y-92255800D01*
X179869600Y-110234800D02*
X179811600Y-110175800D01*
X186145600Y-38684800D02*
X177025600Y-38684800D01*
X182360600Y-122314800D02*
X182301600Y-122255800D01*
X179869600Y-80234800D02*
X179811600Y-80175800D01*
X179869600Y-50234800D02*
X179811600Y-50175800D01*
X182154600Y-102519800D02*
X182061600Y-102425800D01*
X182360600Y-82314800D02*
X182301600Y-82255800D01*
X180109600Y-130064800D02*
X180016600Y-129970800D01*
X178525600Y-38444800D02*
X176785600Y-38444800D01*
X186145600Y-133804800D02*
X177025600Y-133804800D01*
X180109600Y-90064800D02*
X180016600Y-89970800D01*
X182360600Y-62314800D02*
X182301600Y-62255800D01*
X180109600Y-80064800D02*
X180016600Y-79970800D01*
X182360600Y-52314800D02*
X182301600Y-52255800D01*
X182154600Y-132519800D02*
X182061600Y-132425800D01*
X179869600Y-130234800D02*
X179811600Y-130175800D01*
X180109600Y-110064800D02*
X180016600Y-109970800D01*
X182154600Y-62519800D02*
X182061600Y-62425800D01*
X180109600Y-50064800D02*
X180016600Y-49970800D01*
X179869600Y-90234800D02*
X179811600Y-90175800D01*
X179869600Y-100234800D02*
X179811600Y-100175800D01*
X182154600Y-72519800D02*
X182061600Y-72425800D01*
X182360600Y-112314800D02*
X182301600Y-112255800D01*
X182154600Y-122519800D02*
X182061600Y-122425800D01*
X182360600Y-132314800D02*
X182301600Y-132255800D01*
X180109600Y-100064800D02*
X180016600Y-99970800D01*
X182154600Y-112519800D02*
X182061600Y-112425800D01*
X182154600Y-92519800D02*
X182061600Y-92425800D01*
X182154600Y-82519800D02*
X182061600Y-82425800D01*
X179869600Y-70234800D02*
X179811600Y-70175800D01*
X180109600Y-60064800D02*
X180016600Y-59970800D01*
X182360600Y-102314800D02*
X182301600Y-102255800D01*
X182360600Y-72314800D02*
X182301600Y-72255800D01*
X177025600Y-38684800D02*
X177025600Y-133804800D01*
X179869600Y-120234800D02*
X179811600Y-120175800D01*
X176785600Y-38444800D02*
X176785600Y-39944800D01*
X178585600Y-38684800D02*
X178585600Y-133804800D01*
X127155600Y-59969800D02*
X127120600Y-60005800D01*
X134858600Y-62267800D02*
X134811600Y-62313800D01*
X137360600Y-60175800D02*
X137313600Y-60221800D01*
X135051600Y-62483800D02*
X135016600Y-62518800D01*
X137155600Y-59969800D02*
X137120600Y-60005800D01*
X113125600Y-59144800D02*
X139045600Y-59144800D01*
X112885600Y-65644800D02*
X114885600Y-65644800D01*
X139045600Y-57084800D02*
X139045600Y-65404800D01*
X112885600Y-63404800D02*
X112885600Y-65644800D01*
X113125600Y-57084800D02*
X113125600Y-65404800D01*
X127360600Y-60175800D02*
X127313600Y-60221800D01*
X113125600Y-57084800D02*
X139045600Y-57084800D01*
X125051600Y-62483800D02*
X125016600Y-62518800D01*
X124858600Y-62267800D02*
X124811600Y-62313800D01*
X113125600Y-65404800D02*
X139045600Y-65404800D01*
X113125600Y-63344800D02*
X139045600Y-63344800D01*
X114550601Y-60560801D02*
G75*
G03*
X114550174Y-61927842I1534992J-684000D01*
G01*
X117620600Y-61928800D02*
G75*
G03*
X117621026Y-60561758I-1535000J684000D01*
G01*
X116085600Y-62924799D02*
G75*
G03*
X116768918Y-62779555I0J1679999D01*
G01*
X115401600Y-62779799D02*
G75*
G03*
X116114405Y-62925052I683999J1535000D01*
G01*
X116769599Y-59709801D02*
G75*
G03*
X115402558Y-59709374I-684000J-1534992D01*
G01*
X127765600Y-61244800D02*
G75*
G03*
X127765600Y-61244800I-1680000J0D01*
G01*
X137765600Y-61244800D02*
G75*
G03*
X137765600Y-61244800I-1680000J0D01*
G01*
M02*
