M48
; DRILL file {KiCad 7.0.8-7.0.8~ubuntu22.04.1} date 2024年10月17日 18時38分35秒
; FORMAT={-:-/ absolute / inch / decimal}
; #@! TF.CreationDate,2024-10-17T18:38:35+09:00
; #@! TF.GenerationSoftware,Kicad,Pcbnew,7.0.8-7.0.8~ubuntu22.04.1
; #@! TF.FileFunction,Plated,1,2,PTH
FMAT,2
INCH
; #@! TA.AperFunction,Plated,PTH,ComponentDrill
T1C0.0315
; #@! TA.AperFunction,Plated,PTH,ComponentDrill
T2C0.0394
; #@! TA.AperFunction,Plated,PTH,ComponentDrill
T3C0.0433
; #@! TA.AperFunction,Plated,PTH,ComponentDrill
T4C0.0512
%
G90
G05
T1
X5.0109Y-3.0411
X5.0109Y-3.1986
X5.0109Y-3.427
X5.0109Y-3.5864
X5.0109Y-3.8266
X5.0109Y-4.614
X5.0109Y-4.7734
X5.0183Y-3.9801
X5.0183Y-4.2144
X5.0183Y-4.3738
X5.0183Y-5.0018
X5.0183Y-5.1612
X5.3109Y-3.0411
X5.3109Y-3.1986
X5.3109Y-3.427
X5.3109Y-3.5864
X5.3109Y-3.8266
X5.3109Y-4.614
X5.3109Y-4.7734
X5.3183Y-3.9801
X5.3183Y-4.2144
X5.3183Y-4.3738
X5.3183Y-5.0018
X5.3183Y-5.1612
X5.4046Y-3.4329
X5.4046Y-3.5923
X5.4046Y-4.614
X5.4046Y-4.7734
X5.412Y-3.0392
X5.412Y-3.1986
X5.412Y-3.8266
X5.412Y-3.986
X5.412Y-4.2203
X5.412Y-4.3797
X5.412Y-5.0077
X5.412Y-5.1671
X5.7046Y-3.4329
X5.7046Y-3.5923
X5.7046Y-4.614
X5.7046Y-4.7734
X5.712Y-3.0392
X5.712Y-3.1986
X5.712Y-3.8266
X5.712Y-3.986
X5.712Y-4.2203
X5.712Y-4.3797
X5.712Y-5.0077
X5.712Y-5.1671
T2
X4.6097Y-2.8805
X4.6097Y-2.9805
X4.6097Y-3.0805
X4.6097Y-3.1805
X4.6097Y-3.2805
X4.6097Y-3.3805
X4.6097Y-3.4805
X4.6097Y-3.5805
T3
X6.1451Y-1.4222
X6.1451Y-1.5222
X6.1451Y-1.6222
X6.1451Y-1.7222
X6.1451Y-1.8222
X6.1451Y-2.1144
X6.1451Y-2.2144
X6.1451Y-2.3144
X6.1451Y-2.4144
X6.1451Y-2.5144
X6.1451Y-2.8049
X6.1451Y-2.9049
X6.1451Y-3.0049
X6.1451Y-3.1049
X6.1451Y-3.2049
X6.1451Y-3.4955
X6.1451Y-3.5955
X6.1451Y-3.6955
X6.1451Y-3.7955
X6.1451Y-3.8955
X6.1451Y-4.1829
X6.1451Y-4.2829
X6.1451Y-4.3829
X6.1451Y-4.4829
X6.1451Y-4.5829
X6.1451Y-4.9703
X6.1451Y-5.0703
X6.1451Y-5.1703
X6.1451Y-5.2703
X6.1451Y-5.3703
T4
X4.5703Y-2.4112
X4.964Y-2.4112
X5.3577Y-2.4112
X7.1294Y-1.6238
X7.1294Y-2.0175
X7.1294Y-2.4112
X7.1294Y-2.8049
X7.1294Y-3.1986
X7.1294Y-3.5923
X7.1294Y-3.986
X7.1294Y-4.3797
X7.1294Y-4.7734
X7.1294Y-5.1671
T0
M30
