G04 #@! TF.GenerationSoftware,KiCad,Pcbnew,7.0.8-7.0.8~ubuntu22.04.1*
G04 #@! TF.CreationDate,2024-10-17T18:38:32+09:00*
G04 #@! TF.ProjectId,NJW466617LEDDriver,4e4a5734-3636-4363-9137-4c4544447269,rev?*
G04 #@! TF.SameCoordinates,Original*
G04 #@! TF.FileFunction,Soldermask,Bot*
G04 #@! TF.FilePolarity,Negative*
%FSLAX46Y46*%
G04 Gerber Fmt 4.6, Leading zero omitted, Abs format (unit mm)*
G04 Created by KiCad (PCBNEW 7.0.8-7.0.8~ubuntu22.04.1) date 2024-10-17 18:38:32*
%MOMM*%
%LPD*%
G01*
G04 APERTURE LIST*
G04 Aperture macros list*
%AMRoundRect*
0 Rectangle with rounded corners*
0 $1 Rounding radius*
0 $2 $3 $4 $5 $6 $7 $8 $9 X,Y pos of 4 corners*
0 Add a 4 corners polygon primitive as box body*
4,1,4,$2,$3,$4,$5,$6,$7,$8,$9,$2,$3,0*
0 Add four circle primitives for the rounded corners*
1,1,$1+$1,$2,$3*
1,1,$1+$1,$4,$5*
1,1,$1+$1,$6,$7*
1,1,$1+$1,$8,$9*
0 Add four rect primitives between the rounded corners*
20,1,$1+$1,$2,$3,$4,$5,0*
20,1,$1+$1,$4,$5,$6,$7,0*
20,1,$1+$1,$6,$7,$8,$9,0*
20,1,$1+$1,$8,$9,$2,$3,0*%
G04 Aperture macros list end*
%ADD10C,3.600000*%
%ADD11O,2.100000X2.100000*%
%ADD12RoundRect,0.200000X-0.850000X-0.850000X0.850000X-0.850000X0.850000X0.850000X-0.850000X0.850000X0*%
%ADD13RoundRect,0.200000X-1.100000X1.100000X-1.100000X-1.100000X1.100000X-1.100000X1.100000X1.100000X0*%
%ADD14C,2.600000*%
%ADD15O,2.000000X2.000000*%
%ADD16C,2.000000*%
%ADD17C,2.900000*%
%ADD18RoundRect,0.200000X-1.250000X1.250000X-1.250000X-1.250000X1.250000X-1.250000X1.250000X1.250000X0*%
%ADD19RoundRect,0.200000X-1.300000X-1.300000X1.300000X-1.300000X1.300000X1.300000X-1.300000X1.300000X0*%
%ADD20C,3.000000*%
G04 APERTURE END LIST*
D10*
X213585600Y-31244800D03*
X213585600Y-141244800D03*
X103585600Y-141244800D03*
X103585600Y-31244800D03*
X145585600Y-46244800D03*
X111585600Y-46244800D03*
X193585600Y-134244800D03*
X193585600Y-36244800D03*
D11*
X117085600Y-90944800D03*
X117085600Y-88404800D03*
X117085600Y-85864800D03*
X117085600Y-83324800D03*
X117085600Y-80784800D03*
X117085600Y-78244800D03*
X117085600Y-75704800D03*
D12*
X117085600Y-73164800D03*
D13*
X156085600Y-126244800D03*
D14*
X156085600Y-128784800D03*
X156085600Y-131324800D03*
X156085600Y-133864800D03*
X156085600Y-136404800D03*
D13*
X156085600Y-106244800D03*
D14*
X156085600Y-108784800D03*
X156085600Y-111324800D03*
X156085600Y-113864800D03*
X156085600Y-116404800D03*
X156085600Y-98944800D03*
X156085600Y-96404800D03*
X156085600Y-93864800D03*
X156085600Y-91324800D03*
D13*
X156085600Y-88784800D03*
X156085600Y-71244800D03*
D14*
X156085600Y-73784800D03*
X156085600Y-76324800D03*
X156085600Y-78864800D03*
X156085600Y-81404800D03*
D13*
X156085600Y-53704800D03*
D14*
X156085600Y-56244800D03*
X156085600Y-58784800D03*
X156085600Y-61324800D03*
X156085600Y-63864800D03*
D13*
X156085600Y-36124800D03*
D14*
X156085600Y-38664800D03*
X156085600Y-41204800D03*
X156085600Y-43744800D03*
X156085600Y-46284800D03*
D15*
X145085600Y-131244800D03*
D16*
X137465600Y-131244800D03*
D15*
X145085600Y-127194800D03*
D16*
X137465600Y-127194800D03*
D15*
X135085600Y-131094800D03*
D16*
X127465600Y-131094800D03*
D15*
X135085600Y-127044800D03*
D16*
X127465600Y-127044800D03*
X137275600Y-121244800D03*
D15*
X144895600Y-121244800D03*
D16*
X137275600Y-117194800D03*
D15*
X144895600Y-117194800D03*
D16*
X127275600Y-121244800D03*
D15*
X134895600Y-121244800D03*
D16*
X127275600Y-117194800D03*
D15*
X134895600Y-117194800D03*
X145085600Y-111244800D03*
D16*
X137465600Y-111244800D03*
D15*
X145085600Y-107194800D03*
D16*
X137465600Y-107194800D03*
D15*
X135085600Y-111094800D03*
D16*
X127465600Y-111094800D03*
D15*
X135085600Y-107044800D03*
D16*
X127465600Y-107044800D03*
X137465600Y-101244800D03*
D15*
X145085600Y-101244800D03*
D16*
X137465600Y-97194800D03*
D15*
X145085600Y-97194800D03*
D16*
X127465600Y-101094800D03*
D15*
X135085600Y-101094800D03*
X134895600Y-97194800D03*
D16*
X127275600Y-97194800D03*
D15*
X144895600Y-91244800D03*
D16*
X137275600Y-91244800D03*
D15*
X144895600Y-87194800D03*
D16*
X137275600Y-87194800D03*
D15*
X134895600Y-91094800D03*
D16*
X127275600Y-91094800D03*
D15*
X134895600Y-87044800D03*
D16*
X127275600Y-87044800D03*
D15*
X145085600Y-81244800D03*
D16*
X137465600Y-81244800D03*
X137465600Y-77194800D03*
D15*
X145085600Y-77194800D03*
X134895600Y-81244800D03*
D16*
X127275600Y-81244800D03*
D15*
X134895600Y-77244800D03*
D16*
X127275600Y-77244800D03*
D17*
X181085600Y-131244800D03*
X181085600Y-121244800D03*
X181085600Y-111244800D03*
X181085600Y-101244800D03*
X181085600Y-91244800D03*
X181085600Y-81244800D03*
X181085600Y-71244800D03*
X181085600Y-61244800D03*
X181085600Y-51244800D03*
D18*
X181085600Y-41244800D03*
D19*
X116085600Y-61244800D03*
D20*
X126085600Y-61244800D03*
X136085600Y-61244800D03*
M02*
