G04 #@! TF.GenerationSoftware,KiCad,Pcbnew,7.0.8-7.0.8~ubuntu22.04.1*
G04 #@! TF.CreationDate,2024-10-17T18:38:32+09:00*
G04 #@! TF.ProjectId,NJW466617LEDDriver,4e4a5734-3636-4363-9137-4c4544447269,rev?*
G04 #@! TF.SameCoordinates,Original*
G04 #@! TF.FileFunction,Copper,L1,Top*
G04 #@! TF.FilePolarity,Positive*
%FSLAX46Y46*%
G04 Gerber Fmt 4.6, Leading zero omitted, Abs format (unit mm)*
G04 Created by KiCad (PCBNEW 7.0.8-7.0.8~ubuntu22.04.1) date 2024-10-17 18:38:32*
%MOMM*%
%LPD*%
G01*
G04 APERTURE LIST*
G04 #@! TA.AperFunction,ComponentPad*
%ADD10O,1.700000X1.700000*%
G04 #@! TD*
G04 #@! TA.AperFunction,ComponentPad*
%ADD11R,1.700000X1.700000*%
G04 #@! TD*
G04 #@! TA.AperFunction,ComponentPad*
%ADD12R,2.200000X2.200000*%
G04 #@! TD*
G04 #@! TA.AperFunction,ComponentPad*
%ADD13C,2.200000*%
G04 #@! TD*
G04 #@! TA.AperFunction,ComponentPad*
%ADD14O,1.600000X1.600000*%
G04 #@! TD*
G04 #@! TA.AperFunction,ComponentPad*
%ADD15C,1.600000*%
G04 #@! TD*
G04 #@! TA.AperFunction,ComponentPad*
%ADD16C,2.500000*%
G04 #@! TD*
G04 #@! TA.AperFunction,ComponentPad*
%ADD17R,2.500000X2.500000*%
G04 #@! TD*
G04 #@! TA.AperFunction,ComponentPad*
%ADD18R,2.600000X2.600000*%
G04 #@! TD*
G04 #@! TA.AperFunction,ComponentPad*
%ADD19C,2.600000*%
G04 #@! TD*
G04 #@! TA.AperFunction,Conductor*
%ADD20C,1.270000*%
G04 #@! TD*
G04 #@! TA.AperFunction,Conductor*
%ADD21C,2.540000*%
G04 #@! TD*
G04 #@! TA.AperFunction,Conductor*
%ADD22C,0.508000*%
G04 #@! TD*
G04 #@! TA.AperFunction,Conductor*
%ADD23C,2.032000*%
G04 #@! TD*
G04 APERTURE END LIST*
D10*
X117085600Y-90944800D03*
X117085600Y-88404800D03*
X117085600Y-85864800D03*
X117085600Y-83324800D03*
X117085600Y-80784800D03*
X117085600Y-78244800D03*
X117085600Y-75704800D03*
D11*
X117085600Y-73164800D03*
D12*
X156085600Y-126244800D03*
D13*
X156085600Y-128784800D03*
X156085600Y-131324800D03*
X156085600Y-133864800D03*
X156085600Y-136404800D03*
D12*
X156085600Y-106244800D03*
D13*
X156085600Y-108784800D03*
X156085600Y-111324800D03*
X156085600Y-113864800D03*
X156085600Y-116404800D03*
X156085600Y-98944800D03*
X156085600Y-96404800D03*
X156085600Y-93864800D03*
X156085600Y-91324800D03*
D12*
X156085600Y-88784800D03*
X156085600Y-71244800D03*
D13*
X156085600Y-73784800D03*
X156085600Y-76324800D03*
X156085600Y-78864800D03*
X156085600Y-81404800D03*
D12*
X156085600Y-53704800D03*
D13*
X156085600Y-56244800D03*
X156085600Y-58784800D03*
X156085600Y-61324800D03*
X156085600Y-63864800D03*
D12*
X156085600Y-36124800D03*
D13*
X156085600Y-38664800D03*
X156085600Y-41204800D03*
X156085600Y-43744800D03*
X156085600Y-46284800D03*
D14*
X145085600Y-131244800D03*
D15*
X137465600Y-131244800D03*
D14*
X145085600Y-127194800D03*
D15*
X137465600Y-127194800D03*
D14*
X135085600Y-131094800D03*
D15*
X127465600Y-131094800D03*
D14*
X135085600Y-127044800D03*
D15*
X127465600Y-127044800D03*
X137275600Y-121244800D03*
D14*
X144895600Y-121244800D03*
D15*
X137275600Y-117194800D03*
D14*
X144895600Y-117194800D03*
D15*
X127275600Y-121244800D03*
D14*
X134895600Y-121244800D03*
D15*
X127275600Y-117194800D03*
D14*
X134895600Y-117194800D03*
X145085600Y-111244800D03*
D15*
X137465600Y-111244800D03*
D14*
X145085600Y-107194800D03*
D15*
X137465600Y-107194800D03*
D14*
X135085600Y-111094800D03*
D15*
X127465600Y-111094800D03*
D14*
X135085600Y-107044800D03*
D15*
X127465600Y-107044800D03*
X137465600Y-101244800D03*
D14*
X145085600Y-101244800D03*
D15*
X137465600Y-97194800D03*
D14*
X145085600Y-97194800D03*
D15*
X127465600Y-101094800D03*
D14*
X135085600Y-101094800D03*
X134895600Y-97194800D03*
D15*
X127275600Y-97194800D03*
D14*
X144895600Y-91244800D03*
D15*
X137275600Y-91244800D03*
D14*
X144895600Y-87194800D03*
D15*
X137275600Y-87194800D03*
D14*
X134895600Y-91094800D03*
D15*
X127275600Y-91094800D03*
D14*
X134895600Y-87044800D03*
D15*
X127275600Y-87044800D03*
D14*
X145085600Y-81244800D03*
D15*
X137465600Y-81244800D03*
X137465600Y-77194800D03*
D14*
X145085600Y-77194800D03*
X134895600Y-81244800D03*
D15*
X127275600Y-81244800D03*
D14*
X134895600Y-77244800D03*
D15*
X127275600Y-77244800D03*
D16*
X181085600Y-131244800D03*
X181085600Y-121244800D03*
X181085600Y-111244800D03*
X181085600Y-101244800D03*
X181085600Y-91244800D03*
X181085600Y-81244800D03*
X181085600Y-71244800D03*
X181085600Y-61244800D03*
X181085600Y-51244800D03*
D17*
X181085600Y-41244800D03*
D18*
X116085600Y-61244800D03*
D19*
X126085600Y-61244800D03*
X136085600Y-61244800D03*
D20*
X127275600Y-97194800D02*
X127275600Y-100904800D01*
X127275600Y-100904800D02*
X127465600Y-101094800D01*
D21*
X136085600Y-61244800D02*
X136085600Y-43744800D01*
X136085600Y-43744800D02*
X148585600Y-31244800D01*
X148585600Y-31244800D02*
X158585600Y-31244800D01*
X158585600Y-31244800D02*
X162085600Y-34744800D01*
X162085600Y-34744800D02*
X162085600Y-36244800D01*
X136085600Y-61244800D02*
X133585600Y-63744800D01*
X133585600Y-63744800D02*
X133585600Y-66244800D01*
X133585600Y-66244800D02*
X123585600Y-66244800D01*
X123585600Y-66244800D02*
X121085600Y-68744800D01*
X121085600Y-68744800D02*
X116085600Y-68744800D01*
X116085600Y-68744800D02*
X113585600Y-71244800D01*
X113585600Y-71244800D02*
X113585600Y-88744800D01*
X113585600Y-88744800D02*
X117085600Y-92244800D01*
D22*
X156085600Y-38664800D02*
X156085600Y-38682904D01*
X156085600Y-38682904D02*
X151809600Y-42958904D01*
X151809600Y-42958904D02*
X151809600Y-53020800D01*
X151809600Y-53020800D02*
X131665600Y-73164800D01*
X131665600Y-73164800D02*
X117085600Y-73164800D01*
X117085600Y-75704800D02*
X131625600Y-75704800D01*
X131625600Y-75704800D02*
X151085600Y-56244800D01*
X151085600Y-56244800D02*
X156085600Y-56244800D01*
D20*
X117085600Y-90944800D02*
X117085600Y-92244800D01*
X117085600Y-92244800D02*
X117085600Y-114244800D01*
D23*
X162085600Y-36244800D02*
X165585600Y-39744800D01*
D20*
X117085600Y-114244800D02*
X126085600Y-123244800D01*
X126085600Y-123244800D02*
X142895600Y-123244800D01*
X142895600Y-123244800D02*
X144895600Y-121244800D01*
X145085600Y-131244800D02*
X156005600Y-131244800D01*
X156005600Y-131244800D02*
X156085600Y-131324800D01*
X144895600Y-121244800D02*
X146720600Y-123069800D01*
X146720600Y-129609800D02*
X145085600Y-131244800D01*
X146720600Y-123069800D02*
X146720600Y-129609800D01*
D23*
X145085600Y-101244800D02*
X147101600Y-103260800D01*
X147101600Y-103260800D02*
X147101600Y-109228800D01*
X147101600Y-109228800D02*
X145085600Y-111244800D01*
D22*
X154985600Y-91324800D02*
X156085600Y-91324800D01*
X128085600Y-94244800D02*
X152065600Y-94244800D01*
X126021600Y-92180800D02*
X128085600Y-94244800D01*
D23*
X154985600Y-93864800D02*
X147605600Y-101244800D01*
D22*
X152065600Y-94244800D02*
X154985600Y-91324800D01*
X117085600Y-80784800D02*
X126021600Y-89720800D01*
X126021600Y-89720800D02*
X126021600Y-92180800D01*
D23*
X156085600Y-93864800D02*
X154985600Y-93864800D01*
X147605600Y-101244800D02*
X145085600Y-101244800D01*
D22*
X154985600Y-73784800D02*
X156085600Y-73784800D01*
D23*
X146911600Y-84398800D02*
X146911600Y-89228800D01*
D22*
X144980494Y-83789906D02*
X154985600Y-73784800D01*
X117085600Y-78244800D02*
X122630706Y-83789906D01*
X122630706Y-83789906D02*
X144980494Y-83789906D01*
D23*
X156085600Y-76324800D02*
X154985600Y-76324800D01*
X154985600Y-76324800D02*
X146911600Y-84398800D01*
X146911600Y-89228800D02*
X144895600Y-91244800D01*
D20*
X145085600Y-81244800D02*
X154150600Y-72179800D01*
X154150600Y-60179800D02*
X155545600Y-58784800D01*
X154150600Y-72179800D02*
X154150600Y-60179800D01*
X155545600Y-58784800D02*
X156085600Y-58784800D01*
D22*
X151625600Y-113244800D02*
X156085600Y-108784800D01*
X126021600Y-111417109D02*
X127849291Y-113244800D01*
X126021600Y-93182064D02*
X126021600Y-111417109D01*
X125313600Y-92474064D02*
X126021600Y-93182064D01*
X127849291Y-113244800D02*
X151625600Y-113244800D01*
X125313600Y-91552800D02*
X125313600Y-92474064D01*
X117085600Y-83324800D02*
X125313600Y-91552800D01*
X154985600Y-128784800D02*
X156085600Y-128784800D01*
X117085600Y-85864800D02*
X125313600Y-94092800D01*
X125313600Y-94092800D02*
X125313600Y-111710373D01*
X150085600Y-123884800D02*
X154985600Y-128784800D01*
X125313600Y-111710373D02*
X127848027Y-114244800D01*
X127848027Y-114244800D02*
X150085600Y-114244800D01*
X150085600Y-114244800D02*
X150085600Y-123884800D01*
D23*
X165585600Y-39744800D02*
X169085600Y-43244800D01*
X169085600Y-43244800D02*
X169085600Y-58244800D01*
D22*
X157185600Y-108784800D02*
X156085600Y-108784800D01*
D23*
X169675600Y-98834800D02*
X170085600Y-98424800D01*
X157185600Y-111324800D02*
X169675600Y-98834800D01*
X169675600Y-98834800D02*
X169675600Y-118834800D01*
X169675600Y-118834800D02*
X157185600Y-131324800D01*
X157185600Y-131324800D02*
X156085600Y-131324800D01*
X169085600Y-89244800D02*
X170085600Y-90244800D01*
X170085600Y-90244800D02*
X181085600Y-101244800D01*
X156085600Y-111324800D02*
X157185600Y-111324800D01*
X170085600Y-98424800D02*
X170085600Y-90244800D01*
X156085600Y-93864800D02*
X164465600Y-93864800D01*
X164465600Y-93864800D02*
X169085600Y-89244800D01*
X169085600Y-58244800D02*
X169085600Y-74244800D01*
X169085600Y-74244800D02*
X169085600Y-89244800D01*
X156085600Y-76324800D02*
X167005600Y-76324800D01*
X167005600Y-76324800D02*
X169085600Y-74244800D01*
X156085600Y-58784800D02*
X168545600Y-58784800D01*
X168545600Y-58784800D02*
X169085600Y-58244800D01*
X165585600Y-39744800D02*
X164125600Y-41204800D01*
X164125600Y-41204800D02*
X156085600Y-41204800D01*
M02*
